<?xml version="1.0" encoding="utf-8"?>
<!-- Generator: Adobe Illustrator 25.2.1, SVG Export Plug-In . SVG Version: 6.00 Build 0)  -->
<svg version="1.1" id="Layer_1" xmlns="http://www.w3.org/2000/svg" xmlns:xlink="http://www.w3.org/1999/xlink" x="0px" y="0px"
	 viewBox="0 0 140 190" style="enable-background:new 0 0 140 190;" xml:space="preserve">
<style type="text/css">
	.st0{fill:none;}
	.st1{fill:#2B3486;}
	.st2{fill:#61B746;}
</style>
<rect class="st0" width="140" height="190"/>
<g id="Layer_4">
	<path class="st1" d="M25.6,146.1c-2.1,0-3.6-0.6-4.4-1.8s-1.2-3.2-1.2-5.9s0.4-4.7,1.2-5.8s2.2-1.7,4.4-1.7c1.4,0,2.8,0.2,4.2,0.5
		l-0.1,1.9c-1.3-0.2-2.6-0.3-3.9-0.3c-1-0.1-2,0.3-2.6,1.1c-0.6,1.4-0.8,2.9-0.7,4.3c-0.1,1.5,0.1,3,0.7,4.3
		c0.6,0.9,1.6,1.3,2.6,1.2c1.3,0,2.6-0.1,3.9-0.3l0.1,2C28.4,146,27,146.1,25.6,146.1z"/>
	<path class="st1" d="M32,133.3v-2.5h2.4v2.5H32z M32,145.9v-10.8h2.4v10.8H32z"/>
	<path class="st1" d="M43.8,135.1h2.3v10.8h-2.3v-0.7c-0.9,0.6-1.9,0.9-2.9,0.9c-1.5,0-2.5-0.4-3-1.2c-0.6-1.3-0.9-2.8-0.8-4.2v-5.6
		h2.3v5.6c-0.1,0.9,0.1,1.8,0.3,2.6c0.2,0.4,0.7,0.7,1.5,0.7c0.7,0,1.5-0.1,2.1-0.4l0.3-0.1L43.8,135.1z"/>
	<path class="st1" d="M57.8,130.6v15.3h-2.3v-0.6c-0.9,0.5-1.9,0.8-2.9,0.8c-1.2,0.1-2.3-0.4-3.1-1.3c-0.8-1.3-1.1-2.8-1-4.3
		c-0.1-1.5,0.3-3.1,1.1-4.4c0.9-1,2.1-1.5,3.4-1.4c0.8,0,1.6,0.1,2.5,0.3v-4.5H57.8z M55,143.6l0.4-0.1v-6.4
		c-0.8-0.1-1.6-0.2-2.4-0.2c-1.5,0-2.2,1.2-2.2,3.6c-0.1,0.9,0.1,1.9,0.5,2.8c0.4,0.5,1,0.8,1.7,0.7C53.7,144,54.4,143.9,55,143.6
		L55,143.6z"/>
	<path class="st1" d="M68.6,138.4v4.9c0,0.3,0.1,0.5,0.2,0.7c0.2,0.2,0.4,0.3,0.7,0.3l-0.1,1.8c-1,0.1-2-0.2-2.9-0.8
		c-1.1,0.5-2.3,0.8-3.5,0.8c-2.1,0-3.2-1.1-3.2-3.4c-0.1-0.9,0.2-1.8,0.9-2.4c0.8-0.6,1.7-0.9,2.7-0.9l2.8-0.2v-0.8
		c0-0.4-0.1-0.9-0.4-1.2c-0.3-0.2-0.7-0.4-1.1-0.3c-0.9,0-2.1,0.1-3.5,0.2h-0.7l-0.1-1.7c1.4-0.4,2.9-0.5,4.3-0.6
		c1-0.1,2,0.2,2.8,0.9C68.4,136.4,68.7,137.4,68.6,138.4z M63.8,141.1c-0.8,0-1.5,0.6-1.5,1.4c0,0.1,0,0.1,0,0.2
		c0,1,0.4,1.5,1.3,1.5c0.8,0,1.5-0.1,2.3-0.4l0.4-0.1v-2.9L63.8,141.1z"/>
	<path class="st1" d="M80.3,130.6v15.3H78v-0.6c-0.9,0.5-1.9,0.8-2.9,0.8c-1.2,0.1-2.3-0.4-3.1-1.3c-1.4-2.7-1.3-5.9,0.1-8.6
		c0.9-1,2.1-1.5,3.4-1.4c0.8,0,1.6,0.1,2.5,0.3v-4.5H80.3z M77.6,143.6l0.4-0.1v-6.4c-0.8-0.1-1.6-0.2-2.4-0.2
		c-1.4,0-2.2,1.2-2.2,3.6c-0.1,0.9,0.1,1.9,0.5,2.8c0.4,0.5,1,0.8,1.6,0.8C76.2,144,76.9,143.9,77.6,143.6L77.6,143.6z"/>
	<path class="st1" d="M91.2,138.4v4.9c0,0.3,0.1,0.5,0.2,0.7c0.2,0.2,0.4,0.3,0.7,0.3l-0.1,1.8c-1,0.1-2-0.2-2.9-0.8
		c-1.1,0.5-2.3,0.8-3.5,0.8c-2.2,0-3.2-1.1-3.2-3.4c-0.1-0.9,0.2-1.8,0.9-2.4c0.8-0.6,1.7-0.9,2.7-0.9l2.8-0.2v-0.8
		c0.2-0.7-0.3-1.4-1-1.5c-0.2,0-0.3,0-0.5,0c-0.9,0-2.1,0.1-3.4,0.2h-0.7l-0.1-1.7c1.4-0.4,2.9-0.5,4.3-0.6c1-0.1,2,0.2,2.8,0.9
		C90.9,136.4,91.2,137.4,91.2,138.4z M86.3,141.1c-0.8,0-1.5,0.6-1.5,1.4c0,0.1,0,0.1,0,0.2c0,1,0.4,1.5,1.3,1.5
		c0.8,0,1.5-0.1,2.3-0.4l0.4-0.1v-2.9L86.3,141.1z"/>
	<path class="st1" d="M96.5,145.9h-2.3v-10.8h2.3v0.7c0.9-0.6,1.9-0.9,3-0.9c1.1-0.1,2.2,0.3,2.9,1.2c0.6,1.2,0.9,2.6,0.8,4v5.8
		h-2.3v-5.7c0.1-0.8-0.1-1.7-0.4-2.5c-0.3-0.5-0.9-0.8-1.5-0.7c-0.7,0-1.4,0.1-2.1,0.4l-0.3,0.1L96.5,145.9z"/>
	<path class="st1" d="M105.2,131.9l5.1-2.2l0.7,2l-5.3,1.7L105.2,131.9z M105.9,135.1h2.3v10.8h-2.3V135.1z"/>
	<path class="st1" d="M119.1,138.4v4.9c0,0.3,0.1,0.5,0.2,0.7c0.2,0.2,0.4,0.3,0.7,0.3l-0.1,1.8c-1,0.1-2-0.2-2.9-0.8
		c-1.1,0.5-2.3,0.8-3.5,0.8c-2.2,0-3.2-1.1-3.2-3.4c-0.1-0.9,0.2-1.8,0.9-2.4c0.8-0.6,1.7-0.9,2.7-0.9l2.8-0.2v-0.8
		c0.2-0.7-0.3-1.4-1-1.5c-0.2,0-0.3,0-0.5,0c-0.9,0-2.1,0.1-3.4,0.2h-0.7l-0.1-1.7c1.4-0.4,2.9-0.5,4.3-0.6c1-0.1,2,0.2,2.8,0.9
		C118.8,136.4,119.1,137.4,119.1,138.4z M114.2,141.1c-0.8,0-1.5,0.6-1.5,1.4c0,0.1,0,0.1,0,0.2c0,1,0.4,1.5,1.3,1.5
		c0.8,0,1.5-0.1,2.3-0.4l0.4-0.1v-2.9L114.2,141.1z"/>
	<path class="st1" d="M25.1,166.7H20v-14.8h5.1c2.3,0,3.8,0.6,4.7,1.7c0.8,1.1,1.2,2.9,1.2,5.4c0,1.1-0.1,2.1-0.2,3.2
		c-0.2,0.8-0.4,1.6-0.9,2.4C29.1,166,27.5,166.7,25.1,166.7z M28.5,159c0.1-1.3-0.1-2.6-0.7-3.9c-0.5-0.8-1.4-1.2-2.8-1.2h-2.7v10.6
		h2.7c1.2,0.2,2.3-0.5,2.9-1.5c0.2-0.5,0.4-1.1,0.5-1.7C28.5,160.5,28.6,159.8,28.5,159z"/>
	<path class="st1" d="M33.5,154.1v-2.5h2.3v2.5H33.5z M33.5,166.7v-10.8h2.3v10.8H33.5z"/>
	<path class="st1" d="M48.2,168.1c0,2.4-1.7,3.5-5.1,3.5c-1.2,0.1-2.5-0.2-3.6-0.7c-0.8-0.5-1.3-1.5-1.2-2.4c0-0.5,0.1-1,0.4-1.4
		c0.4-0.5,0.8-0.9,1.2-1.2c-0.5-0.4-0.8-1-0.7-1.6c0.1-0.5,0.3-1,0.6-1.4l0.2-0.3c-1.8-1.4-2.1-4-0.7-5.8c0.1-0.1,0.2-0.2,0.3-0.3
		c0.9-0.6,2-1,3.2-0.9c0.6,0,1.3,0.1,1.9,0.2l0.3,0.1l3.3-0.1v1.9l-1.8-0.1c0.4,0.5,0.6,1.1,0.6,1.8c0.1,1.1-0.3,2.1-1,2.9
		c-1,0.6-2.2,0.9-3.3,0.8c-0.3,0-0.6,0-1-0.1c-0.2,0.4-0.3,0.7-0.3,1.1c0,0.3,0.2,0.5,0.4,0.6c0.6,0.1,1.3,0.2,1.9,0.2
		c1.2-0.1,2.4,0.1,3.5,0.7C48,166.3,48.3,167.2,48.2,168.1z M40.5,168.4c0,0.4,0.2,0.9,0.6,1.1c0.7,0.3,1.4,0.4,2.1,0.3
		c1.7,0,2.6-0.5,2.6-1.5c0-0.6-0.2-0.9-0.5-1.1c-0.6-0.2-1.2-0.2-1.8-0.2l-2.1-0.1c-0.3,0.2-0.5,0.4-0.7,0.7
		C40.6,167.8,40.5,168.1,40.5,168.4z M41.2,160.9c0.4,0.3,1,0.5,1.5,0.5c0.5,0.1,1.1-0.1,1.5-0.5c0.3-0.4,0.5-0.9,0.5-1.5
		c0-0.5-0.1-1.1-0.5-1.5c-0.4-0.3-1-0.5-1.5-0.5c-0.9-0.2-1.8,0.5-2,1.4c0,0.2,0,0.3,0,0.5C40.6,160,40.8,160.5,41.2,160.9z"/>
	<path class="st1" d="M50.1,154.1v-2.5h2.3v2.5H50.1z M50.1,166.7v-10.8h2.3v10.8H50.1z"/>
	<path class="st1" d="M61,157.9h-3v4.7c0,0.6,0,1.2,0.2,1.8c0.1,0.3,0.5,0.4,1,0.4l1.8-0.1l0.1,1.9c-0.7,0.2-1.5,0.3-2.2,0.3
		c-0.9,0.1-1.8-0.2-2.5-0.8c-0.6-1-0.8-2.1-0.7-3.2v-5h-1.4v-2h1.4v-3.1h2.3v3.1h3L61,157.9z"/>
	<path class="st1" d="M71,159.2v4.9c0,0.3,0.1,0.5,0.2,0.7c0.2,0.2,0.4,0.3,0.7,0.3l-0.1,1.8c-1,0.1-2-0.2-2.9-0.8
		c-1.1,0.5-2.3,0.8-3.5,0.8c-2.1,0-3.2-1.1-3.2-3.4c-0.1-0.9,0.2-1.8,0.9-2.4c0.8-0.6,1.7-0.9,2.7-0.9l2.8-0.2v-0.8
		c0.1-0.7-0.3-1.4-1-1.5c-0.2,0-0.3,0-0.5,0c-0.9,0-2.1,0.1-3.5,0.2l-0.7,0.1l-0.1-1.7c1.4-0.4,2.9-0.5,4.3-0.6c1-0.1,2,0.2,2.8,0.9
		C70.8,157.2,71.1,158.2,71,159.2z M66.2,161.9c-0.8,0-1.5,0.6-1.5,1.4c0,0.1,0,0.1,0,0.2c0,1,0.4,1.5,1.3,1.5
		c0.8,0,1.5-0.1,2.3-0.3l0.4-0.1v-2.9L66.2,161.9z"/>
	<path class="st1" d="M74,166.7v-15.3h2.3v15.3L74,166.7z"/>
	<path class="st2" d="M81.3,151.7h3.6c0.8-0.1,1.6,0.2,2.2,0.6c0.5,0.5,0.8,1.2,0.7,1.9c0,0.5-0.1,0.9-0.3,1.3
		c-0.2,0.3-0.5,0.6-0.9,0.8c0.9,0.3,1.5,1.3,1.4,2.2c0,1.8-1,2.7-3,2.7h-3.8V151.7z M84.8,153.1h-2v2.7h2c0.7,0.1,1.3-0.4,1.4-1.1
		c0-0.1,0-0.2,0-0.3C86.2,153.5,85.8,153.1,84.8,153.1z M84.9,157.1h-2.1v2.9h2.1c0.4,0,0.8-0.1,1.2-0.3c0.3-0.3,0.4-0.7,0.4-1.1
		c0-0.4-0.1-0.8-0.4-1.1C85.7,157.2,85.3,157.1,84.9,157.1z"/>
	<path class="st2" d="M90,155.1c1.4-1.2,3.4-1.2,4.8,0c0.5,0.8,0.8,1.8,0.7,2.7c0.1,1-0.2,1.9-0.7,2.7c-1.4,1.2-3.5,1.2-4.8,0
		c-0.5-0.8-0.8-1.8-0.7-2.7C89.2,156.8,89.5,155.9,90,155.1z M91.1,159.6c0.6,0.7,1.7,0.7,2.4,0.1c0,0,0.1-0.1,0.1-0.1
		c0.3-0.6,0.4-1.2,0.3-1.8c0-0.6-0.1-1.2-0.3-1.8c-0.6-0.7-1.7-0.7-2.4-0.1c0,0,0,0-0.1,0.1c-0.3,0.6-0.4,1.2-0.3,1.8
		C90.8,158.4,90.9,159,91.1,159.6L91.1,159.6z"/>
	<path class="st2" d="M97.2,161.3v-9.9h1.5v9.9H97.2z"/>
	<path class="st2" d="M100.6,153.1v-1.6h1.5v1.6H100.6z M100.6,161.3v-7h1.5v7H100.6z"/>
	<path class="st2" d="M103.3,154.3h1.6l1.3,5.7h0.4l1.4-5.7h1.6l-1.8,7h-2.7L103.3,154.3z"/>
	<path class="st2" d="M110.8,153.1v-1.6h1.5v1.6H110.8z M110.8,161.3v-7h1.5v7H110.8z"/>
	<path class="st2" d="M119.4,156.5v3.2c0,0.2,0.1,0.3,0.2,0.5c0.1,0.1,0.3,0.2,0.4,0.2v1.2c-0.7,0-1.3-0.1-1.9-0.5
		c-0.7,0.3-1.5,0.5-2.2,0.5c-1.4,0-2.1-0.7-2.1-2.2c-0.1-0.6,0.2-1.1,0.6-1.5c0.5-0.4,1.1-0.6,1.7-0.6l1.8-0.1v-0.5
		c0-0.3-0.1-0.6-0.2-0.8c-0.2-0.2-0.5-0.3-0.7-0.2c-0.6,0-1.3,0-2.2,0.1h-0.4v-1.1c0.9-0.2,1.9-0.4,2.8-0.4c0.7-0.1,1.3,0.1,1.8,0.6
		C119.3,155.2,119.5,155.8,119.4,156.5z M116.2,158.2c-0.5,0-1,0.3-1,0.9c0,0,0,0.1,0,0.1c0,0.6,0.3,1,0.8,1c0.5,0,1-0.1,1.5-0.2
		l0.2-0.1V158L116.2,158.2z"/>
	<path class="st1" d="M119.8,65.4c-0.1-1.1-1-1.8-2.1-1.7c-1.1,0.1-1.8,1-1.7,2.1c0.1,1.4,0.2,2.8,0.2,4.3
		c0,25.5-20.7,46.1-46.2,46.2v-14.5h-0.8c-1.4,0-2.7-0.2-4.1-0.4C47.8,98.5,36,82.3,38.8,65c0.1-0.9,0.3-1.9,0.6-2.8
		c0.3-1,1.3-1.7,2.3-1.4s1.7,1.3,1.4,2.3l0,0c-0.6,2.2-0.8,4.5-0.8,6.8c-0.1,13.7,9.9,25.4,23.4,27.4c1.2,0.2,2.4,0.3,3.6,0.3H70
		V83.3l0,0c7.3,0,13.3-6,13.3-13.3c0-1.8-0.4-3.5-1-5.1c-0.5-1-1.6-1.4-2.6-0.9c-0.9,0.4-1.3,1.5-1,2.4c2,4.8-0.2,10.4-5.1,12.4
		c-1.2,0.5-2.4,0.7-3.6,0.7l0,0c-5.2,0-9.4-4.2-9.4-9.4s4.2-9.4,9.4-9.4l0,0c1.3,0,2.5,0.2,3.7,0.7c1,0.3,2.1-0.2,2.4-1.2
		c0.3-0.9-0.1-1.9-1-2.3c-1.6-0.7-3.4-1-5.1-1l0,0V42.2h1.3c0.5,0,1,0.1,1.5,0.1h0.3c0.5,0,1,0.1,1.5,0.2l0.4,0.1
		c0.5,0.1,1,0.2,1.5,0.3l0.3,0.1l0,0c0.2,0,0.3,0.1,0.5,0.1c1.1,0,1.9-0.9,1.9-2c0-0.9-0.6-1.6-1.4-1.8L77,39.2
		c-0.4-0.1-0.8-0.2-1.2-0.2s-0.7-0.1-1-0.2s-0.7-0.1-1.1-0.2s-0.6-0.1-1-0.1l-1.1-0.1h-0.9H70V23.9c18.8-0.1,35.8,11.4,42.8,28.9
		c0.4,1,1.5,1.5,2.5,1.1c1-0.4,1.5-1.5,1.1-2.5l0,0c-10.3-25.6-39.5-38-65.1-27.7s-38,39.5-27.7,65.1s39.5,38,65.1,27.7
		c18.9-7.6,31.3-26,31.3-46.3C120,68.5,119.9,66.9,119.8,65.4z M42.8,53.8c1.5-2.5,3.3-4.7,5.3-6.7c0.9-0.9,1.8-1.7,2.8-2.4
		c-0.2-0.7-0.3-1.3-0.3-2c0-4.4,3.5-7.9,7.9-7.9s7.9,3.5,7.9,7.9c0,4.4-3.5,7.9-7.9,7.9c-2.2,0-4.3-0.9-5.8-2.5
		c-0.7,0.6-1.4,1.2-2.1,1.8c-1.8,1.7-3.4,3.7-4.7,5.9c-0.3,0.6-1,0.9-1.7,0.9c-0.4,0-0.7-0.1-1-0.3C42.6,55.9,42.3,54.7,42.8,53.8
		C42.8,53.8,42.8,53.8,42.8,53.8z M97.8,70c0-9.8-5.1-18.8-13.5-23.8l0,0c-0.9-0.6-1.2-1.7-0.6-2.6c0.6-0.9,1.7-1.2,2.6-0.6
		c0.6,0.4,1.2,0.7,1.8,1.1c8.5,5.9,13.6,15.6,13.6,26c0,1.5-0.1,3-0.3,4.5c0,0,0,0.1,0,0.1c-0.1,0.8-0.2,1.5-0.4,2.2l0,0
		c-1,4.5-2.9,8.7-5.7,12.3c0,0.1-0.1,0.1-0.2,0.2c-2.5,3.3-5.7,6.1-9.3,8.1c0,2.4-2,4.3-4.4,4.3c-2.4,0-4.3-2-4.3-4.4
		c0-2.4,2-4.3,4.4-4.3c1,0,1.9,0.4,2.7,1C92.6,89,97.8,79.9,97.8,70z"/>
</g>
</svg>
