<?xml version="1.0" encoding="UTF-8" standalone="no"?>
<!-- Generator: Adobe Illustrator 25.2.1, SVG Export Plug-In . SVG Version: 6.00 Build 0)  -->

<svg
   version="1.1"
   id="Layer_1"
   x="0px"
   y="0px"
   viewBox="0 0 120 120"
   style="enable-background:new 0 0 120 120;"
   xml:space="preserve"
   sodipodi:docname="CDV3-negro.svg"
   inkscape:version="1.1.2 (0a00cf5339, 2022-02-04)"
   xmlns:inkscape="http://www.inkscape.org/namespaces/inkscape"
   xmlns:sodipodi="http://sodipodi.sourceforge.net/DTD/sodipodi-0.dtd"
   xmlns="http://www.w3.org/2000/svg"
   xmlns:svg="http://www.w3.org/2000/svg"><defs
   id="defs11" /><sodipodi:namedview
   id="namedview9"
   pagecolor="#ffffff"
   bordercolor="#666666"
   borderopacity="1.0"
   inkscape:pageshadow="2"
   inkscape:pageopacity="0.0"
   inkscape:pagecheckerboard="0"
   showgrid="false"
   inkscape:zoom="3.625"
   inkscape:cx="134.34483"
   inkscape:cy="74.068966"
   inkscape:window-width="1920"
   inkscape:window-height="1011"
   inkscape:window-x="0"
   inkscape:window-y="0"
   inkscape:window-maximized="1"
   inkscape:current-layer="Layer_1" />
<style
   type="text/css"
   id="style2">
	.st0{fill:none;}
	.st1{fill:#FFFFFF;}
</style>
<rect
   id="Boundary"
   class="st0"
   width="120"
   height="120"
   x="-0.037246704"
   y="-0.19921875" />
<circle
   style="fill:#ffffff;fill-opacity:0.996723;stroke-width:14.9042"
   id="path1038"
   cx="59.962753"
   cy="59.800781"
   r="59.150524" /><g
   id="Layer_3"
   transform="translate(-0.02481898,-0.19989908)">
	<path
   class="st1"
   d="m 109.8,55.4 c -0.1,-1.1 -1,-1.8 -2.1,-1.7 -1.1,0.1 -1.8,1 -1.7,2.1 0.1,1.4 0.2,2.8 0.2,4.3 0,25.5 -20.7,46.1 -46.2,46.2 V 91.6 h -0.8 c -1.4,0 -2.7,-0.2 -4.1,-0.4 C 37.8,88.5 26,72.3 28.8,55 c 0.1,-0.9 0.3,-1.9 0.6,-2.8 0.3,-1 1.3,-1.7 2.3,-1.4 1,0.3 1.7,1.3 1.4,2.3 -0.6,2.2 -0.8,4.5 -0.8,6.8 -0.1,13.7 9.9,25.4 23.4,27.4 1.2,0.2 2.4,0.3 3.6,0.3 H 60 v -14.3 0 c 7.3,0 13.3,-6 13.3,-13.3 0,-1.8 -0.4,-3.5 -1,-5.1 -0.5,-1 -1.6,-1.4 -2.6,-0.9 -0.9,0.4 -1.3,1.5 -1,2.4 2,4.8 -0.2,10.4 -5.1,12.4 -1.2,0.5 -2.4,0.7 -3.6,0.7 v 0 c -5.2,0 -9.4,-4.2 -9.4,-9.4 0,-5.2 4.2,-9.4 9.4,-9.4 v 0 0 c 1.3,0 2.5,0.2 3.7,0.7 1,0.3 2.1,-0.2 2.4,-1.2 0.3,-0.9 -0.1,-1.9 -1,-2.3 -1.6,-0.7 -3.4,-1 -5.1,-1 v 0 -14.7 h 1.3 c 0.5,0 1,0.1 1.5,0.1 h 0.3 c 0.5,0 1,0.1 1.5,0.2 l 0.4,0.1 c 0.5,0.1 1,0.2 1.5,0.3 l 0.3,0.1 v 0 c 0.2,0 0.3,0.1 0.5,0.1 1.1,0 1.9,-0.9 1.9,-2 0,-0.9 -0.6,-1.6 -1.4,-1.8 L 67,29.1 c -0.4,-0.1 -0.8,-0.2 -1.2,-0.2 -0.4,0 -0.7,-0.1 -1,-0.1 -0.3,0 -0.7,-0.1 -1.1,-0.2 -0.4,-0.1 -0.6,-0.1 -1,-0.1 L 61.6,28.4 H 60.7 60 V 13.9 c 18.8,-0.1 35.8,11.4 42.8,28.9 0.4,1 1.5,1.5 2.5,1.1 1,-0.4 1.5,-1.5 1.1,-2.5 v 0 C 96,15.7 66.9,3.3 41.3,13.6 15.7,23.9 3.3,53.1 13.6,78.7 c 10.3,25.6 39.5,38 65.1,27.7 18.9,-7.7 31.3,-26 31.3,-46.4 0,-1.5 -0.1,-3.1 -0.2,-4.6 z m -77,-11.6 c 1.5,-2.5 3.3,-4.7 5.3,-6.7 0.9,-0.9 1.8,-1.7 2.8,-2.4 -0.2,-0.7 -0.3,-1.3 -0.3,-2 0,-4.4 3.5,-7.9 7.9,-7.9 4.4,0 7.9,3.5 7.9,7.9 0,4.4 -3.5,7.9 -7.9,7.9 -2.2,0 -4.3,-0.9 -5.8,-2.5 -0.7,0.6 -1.4,1.2 -2.1,1.8 -1.8,1.7 -3.4,3.7 -4.7,5.9 -0.3,0.6 -1,0.9 -1.7,0.9 -0.4,0 -0.7,-0.1 -1,-0.3 -0.6,-0.5 -0.9,-1.7 -0.4,-2.6 z m 55,16.2 c 0,-9.8 -5.1,-18.8 -13.5,-23.8 v 0 c -0.9,-0.6 -1.2,-1.7 -0.6,-2.6 0.6,-0.9 1.7,-1.2 2.6,-0.6 0.6,0.4 1.2,0.7 1.8,1.1 8.5,5.9 13.6,15.6 13.6,26 0,1.5 -0.1,3 -0.3,4.5 v 0.1 c -0.1,0.8 -0.2,1.5 -0.4,2.2 v 0 c -1,4.5 -2.9,8.7 -5.7,12.3 0,0.1 -0.1,0.1 -0.2,0.2 -2.5,3.3 -5.7,6.1 -9.3,8.1 0,2.4 -2,4.3 -4.4,4.3 -2.4,0 -4.3,-2 -4.3,-4.4 0,-2.4 2,-4.3 4.4,-4.3 1,0 1.9,0.4 2.7,1 C 82.6,79 87.8,69.9 87.8,60 Z"
   id="path5"
   style="fill:#000000" />
</g>
</svg>
