<?xml version="1.0" encoding="UTF-8" standalone="no"?>
<!DOCTYPE svg PUBLIC "-//W3C//DTD SVG 1.1//EN" "http://www.w3.org/Graphics/SVG/1.1/DTD/svg11.dtd">
<!-- Created with Vectornator (http://vectornator.io/) -->
<svg height="100%" stroke-miterlimit="10" style="fill-rule:nonzero;clip-rule:evenodd;stroke-linecap:round;stroke-linejoin:round;" version="1.1" viewBox="1176.55 2406.06 170.411 370.476" width="100%" xml:space="preserve" xmlns="http://www.w3.org/2000/svg" xmlns:vectornator="http://vectornator.io" xmlns:xlink="http://www.w3.org/1999/xlink">
<defs/>
<clipPath id="ArtboardFrame">
<rect height="370.476" width="170.411" x="1176.55" y="2406.06"/>
</clipPath>
<g clip-path="url(#ArtboardFrame)" id="Layer" vectornator:layerName="Layer">
<g opacity="1" vectornator:layerName="path 8">
<path d="M1180.7 2469.69L1293.34 2464.82C1293.86 2499.83 1292.26 2529.95 1305.6 2559.12C1309 2566.53 1313.31 2573.56 1315.91 2581.29C1318.5 2589.02 1319.2 2597.86 1315.4 2605.08C1307.68 2603.32 1299.95 2601.55 1292.22 2599.79C1292.15 2597.42 1292.08 2595.05 1292.01 2592.68C1291.51 2595.77 1289.09 2598.58 1286.17 2599.97C1282.42 2601.76 1278.08 2601.74 1273.92 2601.61C1261.05 2601.2 1248.2 2600.08 1235.45 2598.25C1224.35 2596.66 1213.32 2594.54 1202.42 2591.89C1199.31 2591.13 1184.85 2593.19 1184.85 2593.19C1174.56 2557.71 1174.64 2506.14 1180.7 2469.69" fill="#182e35" fill-rule="nonzero" opacity="1" stroke="none" vectornator:layerName="path"/>
<path d="M1182.27 2462.92C1186.37 2445.52 1190.56 2427.41 1204.98 2416.85C1217.82 2407.43 1232.18 2405.16 1248.06 2406.34C1255.88 2406.92 1264.61 2410.83 1271.3 2414.91C1280.48 2420.51 1284.09 2431.37 1288.29 2441.27C1296.69 2461.1 1294.68 2487.52 1288.32 2494.68L1205.27 2535.14C1191.07 2527.14 1181.51 2523.32 1178.2 2507.36C1175.95 2496.49 1179.73 2473.73 1182.27 2462.92" fill="#182e35" fill-rule="nonzero" opacity="1" stroke="none" vectornator:layerName="path"/>
<path d="M1206.22 2433.03L1258.09 2419.55C1274.72 2417.67 1285.93 2438.09 1287.1 2454.78C1288.39 2473.33 1289.24 2496.03 1287.14 2509.89C1282.91 2537.76 1261.59 2541.45 1261.59 2541.45C1261.59 2541.35 1261.53 2541.86 1261.43 2550.13L1261.57 2568.75L1207.46 2559.84L1197.52 2443.03C1197.39 2437.94 1201.17 2433.6 1206.22 2433.03" fill="#ffbf9d" fill-rule="nonzero" opacity="1" stroke="none" vectornator:layerName="path"/>
<path d="M1283.29 2475.97C1282.85 2476.44 1280.13 2474.46 1276.29 2474.49C1272.45 2474.47 1269.64 2476.47 1269.23 2476C1269.02 2475.8 1269.47 2474.95 1270.69 2474.05C1271.89 2473.15 1273.94 2472.27 1276.34 2472.27C1278.73 2472.26 1280.75 2473.13 1281.91 2474.02C1283.1 2474.92 1283.51 2475.76 1283.29 2475.97" fill="#182e35" fill-rule="nonzero" opacity="1" stroke="none" vectornator:layerName="path"/>
<path d="M1246.47 2475.97C1246.03 2476.44 1243.31 2474.46 1239.47 2474.49C1235.63 2474.47 1232.83 2476.47 1232.41 2476C1232.2 2475.8 1232.64 2474.95 1233.87 2474.05C1235.07 2473.15 1237.13 2472.27 1239.52 2472.27C1241.91 2472.26 1243.93 2473.13 1245.1 2474.02C1246.28 2474.92 1246.69 2475.76 1246.47 2475.97" fill="#182e35" fill-rule="nonzero" opacity="1" stroke="none" vectornator:layerName="path"/>
<path d="M1258.63 2496C1258.61 2495.78 1260.99 2495.35 1264.86 2494.83C1265.84 2494.72 1266.77 2494.52 1266.93 2493.85C1267.15 2493.14 1266.74 2492.09 1266.25 2490.95C1265.31 2488.58 1264.33 2486.1 1263.3 2483.5C1259.2 2472.89 1256.22 2464.16 1256.65 2464C1257.08 2463.84 1260.75 2472.31 1264.86 2482.92C1265.84 2485.53 1266.79 2488.03 1267.69 2490.41C1268.07 2491.52 1268.71 2492.79 1268.22 2494.26C1267.96 2494.99 1267.25 2495.53 1266.62 2495.7C1265.99 2495.9 1265.44 2495.92 1264.95 2495.95C1261.06 2496.18 1258.64 2496.22 1258.63 2496" fill="#182e35" fill-rule="nonzero" opacity="1" stroke="none" vectornator:layerName="path"/>
<path d="M1261.59 2541.45C1261.59 2541.45 1242.87 2542.78 1224.24 2531.75C1224.24 2531.75 1233.59 2551.17 1261.44 2548.38L1261.59 2541.45Z" fill="#fd9a6c" fill-rule="nonzero" opacity="1" stroke="none" vectornator:layerName="path"/>
<path d="M1246.88 2461.69C1246.64 2462.77 1242.77 2462.8 1238.38 2463.94C1233.96 2464.99 1230.54 2466.79 1229.82 2465.94C1229.49 2465.53 1229.99 2464.47 1231.31 2463.27C1232.62 2462.08 1234.79 2460.81 1237.43 2460.15C1240.08 2459.5 1242.59 2459.59 1244.31 2460.03C1246.03 2460.47 1246.97 2461.17 1246.88 2461.69" fill="#182e35" fill-rule="nonzero" opacity="1" stroke="none" vectornator:layerName="path"/>
<path d="M1281.78 2461.73C1280.79 2462.33 1278.25 2460.57 1274.88 2459.45C1271.54 2458.22 1268.44 2458.01 1268.06 2456.93C1267.91 2456.42 1268.62 2455.73 1270.13 2455.34C1271.61 2454.95 1273.88 2454.97 1276.19 2455.78C1278.5 2456.59 1280.27 2457.98 1281.18 2459.21C1282.1 2460.45 1282.22 2461.43 1281.78 2461.73" fill="#182e35" fill-rule="nonzero" opacity="1" stroke="none" vectornator:layerName="path"/>
<path d="M1258.63 2416.33C1259.91 2427.56 1258 2439.13 1253.2 2449.36C1251.85 2452.22 1250.24 2455.03 1247.85 2457.1C1245.46 2459.16 1242.16 2460.38 1239.09 2459.63C1243.98 2453.6 1246.92 2446.01 1247.36 2438.26C1243.82 2446.07 1240.19 2454.02 1234.4 2460.34C1228.61 2466.66 1220.2 2471.19 1211.69 2470.19L1212.42 2464.48C1211.07 2468.54 1208.91 2472.53 1205.36 2474.93C1201.81 2477.33 1196.64 2477.68 1193.41 2474.88C1196.67 2461.02 1188.57 2445.67 1194.29 2432.64C1198.25 2423.61 1207.87 2418.42 1217.35 2415.71C1230.67 2411.9 1245.02 2411.73 1258.44 2415.21" fill="#182e35" fill-rule="nonzero" opacity="1" stroke="none" vectornator:layerName="path"/>
<path d="M1257.47 2416.52C1257.51 2416.73 1257.54 2416.93 1257.58 2417.13L1257.49 2417.17C1257.48 2416.95 1257.48 2416.74 1257.47 2416.52" fill="#182e35" fill-rule="nonzero" opacity="1" stroke="none" vectornator:layerName="path"/>
<path d="M1257.58 2417.13L1259.29 2416.48C1264.61 2413.91 1268.14 2410.94 1276.1 2418.38C1280.41 2422.41 1284.2 2428.38 1286.86 2434.44C1289.24 2439.85 1291.82 2445.72 1292.57 2451.58C1293.54 2459.25 1293.65 2464.82 1292.57 2472.95C1287.94 2469.69 1285.67 2464.02 1284.31 2458.53C1282.95 2453.03 1282.21 2447.28 1279.59 2442.26C1280.26 2446.95 1280.93 2451.73 1280.05 2456.38C1279.81 2457.65 1279.4 2458.98 1278.42 2459.83C1277.44 2460.67 1275.74 2460.78 1274.97 2459.73C1276.84 2454.4 1276.66 2448.51 1275.4 2442.99C1274.13 2437.48 1271.84 2432.26 1269.53 2427.1C1270.53 2436.54 1269.9 2446.15 1267.68 2455.38C1267.36 2456.7 1266.97 2458.09 1265.99 2459.03C1264.52 2460.44 1262.2 2460.43 1260.2 2460.07C1258.19 2459.71 1256.12 2459.1 1254.15 2459.64C1259.12 2446.13 1260.31 2431.26 1257.58 2417.13" fill="#182e35" fill-rule="nonzero" opacity="1" stroke="none" vectornator:layerName="path"/>
<path d="M1291.63 2491.15C1291.64 2491.15 1291.64 2491.26 1291.64 2491.46C1291.63 2491.7 1291.62 2492 1291.61 2492.38C1291.59 2493.19 1291.48 2494.38 1291.48 2495.91C1291.39 2498.97 1291.44 2503.42 1291.96 2508.87C1292.21 2511.6 1292.64 2514.57 1293.2 2517.74C1293.83 2520.9 1294.53 2524.27 1295.58 2527.73C1297.59 2534.68 1300.6 2542.11 1304.76 2549.35C1308.94 2556.58 1313.77 2562.98 1317.35 2569.32C1319.16 2572.47 1320.68 2575.59 1321.79 2578.64C1322.91 2581.68 1323.6 2584.64 1323.98 2587.37C1324.72 2592.85 1324.03 2597.38 1323.03 2600.28C1322.91 2600.65 1322.8 2600.99 1322.69 2601.32C1322.55 2601.63 1322.43 2601.93 1322.31 2602.2C1322.09 2602.75 1321.88 2603.2 1321.68 2603.55C1321.49 2603.89 1321.35 2604.16 1321.24 2604.36C1321.13 2604.54 1321.08 2604.63 1321.07 2604.63C1321.06 2604.63 1321.1 2604.53 1321.19 2604.34C1321.29 2604.13 1321.42 2603.85 1321.58 2603.51C1321.77 2603.15 1321.97 2602.69 1322.17 2602.14C1322.28 2601.87 1322.4 2601.57 1322.52 2601.26C1322.62 2600.93 1322.73 2600.59 1322.84 2600.22C1323.77 2597.33 1324.39 2592.84 1323.61 2587.42C1323.22 2584.72 1322.52 2581.8 1321.38 2578.79C1320.27 2575.78 1318.74 2572.69 1316.94 2569.55C1313.35 2563.26 1308.52 2556.88 1304.3 2549.61C1300.13 2542.33 1297.11 2534.86 1295.12 2527.87C1294.08 2524.38 1293.39 2520.99 1292.77 2517.82C1292.24 2514.63 1291.82 2511.65 1291.59 2508.91C1291.12 2503.43 1291.13 2498.97 1291.27 2495.9C1291.31 2494.37 1291.45 2493.18 1291.5 2492.38C1291.54 2492 1291.56 2491.69 1291.58 2491.46C1291.6 2491.25 1291.62 2491.15 1291.63 2491.15" fill="#182e35" fill-rule="nonzero" opacity="1" stroke="none" vectornator:layerName="path"/>
<path d="M1245.64 2504.72C1246.53 2502.96 1247.31 2500.48 1249.22 2500.26C1251.96 2499.94 1255.35 2502.14 1257.35 2504.53C1258.02 2505.21 1258.2 2506.93 1258 2507.52C1257.79 2508.11 1256.95 2510.5 1256.64 2511.01C1254.86 2514.03 1254.29 2513.78 1252.26 2514.44C1250.24 2515.1 1247.77 2512.58 1246.26 2510.68C1244.91 2508.99 1244.75 2506.48 1245.64 2504.72" fill="#fd9a6c" fill-rule="nonzero" opacity="1" stroke="none" vectornator:layerName="path"/>
<path d="M1254.45 2514.36C1254.47 2514.46 1254.06 2514.67 1253.23 2514.79C1252.41 2514.9 1251.16 2514.87 1249.73 2514.33C1248.32 2513.81 1246.72 2512.75 1245.63 2510.97C1244.53 2509.2 1244.16 2506.79 1244.77 2504.49C1245.06 2503.34 1245.6 2502.28 1246.3 2501.4C1246.66 2500.96 1247.03 2500.56 1247.5 2500.2C1247.96 2499.85 1248.56 2499.55 1249.24 2499.54C1249.91 2499.53 1250.42 2499.75 1250.84 2499.92C1251.25 2500.1 1251.65 2500.28 1252.04 2500.46C1252.81 2500.81 1253.52 2501.17 1254.15 2501.51C1256.68 2502.9 1258.05 2504.05 1257.94 2504.22C1257.83 2504.41 1256.26 2503.61 1253.67 2502.51C1253.02 2502.24 1252.31 2501.94 1251.54 2501.65C1250.79 2501.39 1249.84 2500.93 1249.29 2500.97C1248.75 2500.99 1248.06 2501.6 1247.51 2502.34C1246.95 2503.07 1246.52 2503.94 1246.28 2504.89C1245.77 2506.79 1246.05 2508.78 1246.87 2510.24C1247.69 2511.73 1248.99 2512.74 1250.17 2513.32C1252.6 2514.5 1254.43 2514.1 1254.45 2514.36" fill="#182e35" fill-rule="nonzero" opacity="1" stroke="none" vectornator:layerName="path"/>
<path d="M1204.78 2558.41C1204.78 2558.41 1203.79 2560.44 1202.34 2563.81C1199.8 2569.75 1195.87 2580.11 1193.22 2592.19C1191.53 2599.85 1190.35 2608.14 1190.47 2616.47C1190.85 2644.46 1208.37 2701.58 1212.62 2725.84L1199.53 2776.12L1318.25 2776.53C1318.15 2773.95 1318.11 2771.52 1317.94 2768.75C1317.9 2768.75 1317.85 2768.75 1317.81 2768.75L1317.81 2771.62L1317.66 2768.94L1317.66 2768.91L1317.66 2768.81C1317.36 2768.8 1317.15 2768.8 1316.81 2768.78C1316.74 2768.77 1316.64 2768.76 1316.56 2768.75C1316.16 2768.72 1315.75 2768.64 1315.34 2768.59C1315.28 2768.59 1315.22 2768.57 1315.16 2768.56C1314.66 2768.51 1314.24 2768.48 1313.69 2768.38C1313.49 2768.34 1313.24 2768.26 1313.03 2768.22C1313.01 2768.21 1312.99 2768.22 1312.97 2768.22C1312.72 2768.16 1312.45 2768.13 1312.22 2768.06C1311.51 2767.91 1310.81 2767.76 1310.09 2767.56C1310.8 2767.76 1311.44 2767.86 1312.09 2768C1312.68 2768.13 1313.26 2768.22 1313.84 2768.31C1314.89 2768.5 1315.94 2768.7 1317.22 2768.75C1317.26 2768.75 1317.3 2768.75 1317.34 2768.75C1317.5 2768.75 1317.65 2768.71 1317.81 2768.72L1317.81 2767.03C1317.6 2763.67 1317.29 2760.28 1317 2756.81C1316.98 2756.63 1316.98 2756.46 1316.97 2756.28C1315.11 2734.24 1312.68 2713.96 1311.97 2706.03C1311.97 2706.03 1311.97 2706.01 1311.97 2706C1311.94 2705.65 1311.87 2705.01 1311.84 2704.72C1311.84 2704.62 1311.82 2704.37 1311.81 2704.28C1311.76 2703.58 1311.45 2701.22 1311.47 2700.97C1311.62 2699.29 1314.14 2693.7 1316.97 2687.5C1317.17 2687.05 1317.35 2686.64 1317.56 2686.19C1317.65 2686 1317.73 2685.84 1317.81 2685.66C1317.88 2685.5 1317.93 2685.37 1318 2685.22C1318.29 2684.58 1318.55 2684.05 1318.84 2683.41C1318.84 2683.4 1318.85 2683.38 1318.84 2683.38C1319.78 2681.33 1320.51 2679.51 1321.41 2677.5C1321.43 2677.46 1321.45 2677.42 1321.47 2677.38C1322.33 2675.44 1323.2 2673.48 1323.94 2671.72C1323.84 2671.91 1323.75 2672.07 1323.66 2672.28C1324.01 2671.47 1324.45 2670.68 1324.75 2669.84C1324.76 2669.82 1324.77 2669.8 1324.78 2669.78C1324.79 2669.76 1324.77 2669.74 1324.78 2669.72C1325.87 2666.69 1326.62 2663.54 1327.19 2660.34C1327.19 2660.31 1327.21 2660.28 1327.22 2660.25C1327.23 2660.19 1327.24 2660.13 1327.25 2660.06C1327.25 2660.05 1327.25 2660.04 1327.25 2660.03C1327.38 2659.25 1327.46 2658.47 1327.56 2657.69C1327.58 2657.45 1327.62 2657.2 1327.62 2656.97C1327.65 2656.68 1327.61 2656.35 1327.62 2656.06C1327.64 2655.33 1327.59 2654.65 1327.56 2653.94C1327.56 2653.93 1327.56 2653.92 1327.56 2653.91C1327.56 2653.78 1327.57 2653.65 1327.56 2653.53C1327.6 2653.56 1327.65 2653.59 1327.66 2653.59C1327.58 2649.43 1326.71 2644.64 1322.97 2638.12C1320.63 2634.05 1304.28 2615.67 1288.59 2598.34C1283.59 2592.81 1282.76 2591.96 1278.66 2587.47C1271.59 2579.74 1261.56 2568.75 1261.56 2568.75L1207.38 2558.88L1204.78 2558.41ZM1287.06 2752.69C1287.15 2752.79 1287.25 2752.87 1287.34 2752.97C1288.49 2754.23 1289.64 2755.48 1290.81 2756.59C1292.12 2757.84 1293.45 2758.95 1294.81 2759.94C1292.94 2758.59 1291.09 2757.15 1289.34 2755.56C1288.99 2755.24 1287.69 2753.41 1287.06 2752.69Z" fill="#ff735d" fill-rule="nonzero" opacity="1" stroke="none"/>
<g opacity="0.300003" vectornator:layerName="path">
<clipPath clip-rule="nonzero" id="ClipPath">
<path d="M1238.37 2772.73L1317.82 2772.73L1317.82 2706.02L1238.37 2706.02L1238.37 2772.73Z"/>
</clipPath>
<g clip-path="url(#ClipPath)">
<path d="M1242.62 2715.54C1244.91 2709.28 1258.08 2712.67 1258.42 2706.02L1291.14 2749.96C1294.52 2754.31 1297.98 2758.68 1302.33 2762.06C1306.68 2765.45 1309.59 2768.65 1317.67 2768.79L1317.82 2771.65C1305.41 2775.05 1291.93 2770.16 1283.07 2760.83C1273.69 2764.47 1262.7 2764.14 1253.88 2759.29C1245.06 2754.45 1238.77 2744.99 1238.39 2734.94C1238.14 2728.28 1240.32 2721.79 1242.62 2715.54" fill="#000000" fill-rule="nonzero" opacity="1" stroke="none" vectornator:layerName="path"/>
</g>
</g>
<path d="M1202.46 2601.86C1205.89 2571.71 1231.13 2556.48 1254.73 2575.54C1259.8 2579.64 1266.96 2590.67 1270.41 2595.54C1285.73 2617.15 1328.12 2701.39 1328.12 2701.39C1328.12 2701.39 1345.75 2708.25 1345.75 2716.5C1345.75 2724.75 1341.72 2757.37 1330.72 2765.23C1319.72 2773.09 1302.42 2767.47 1289.36 2755.55C1287.39 2753.76 1281.53 2746.91 1274.89 2736.45C1265.65 2721.87 1254.05 2700.71 1241.66 2680.23C1221.66 2647.15 1201.88 2614.83 1202.26 2604.55C1202.29 2603.67 1202.36 2602.77 1202.46 2601.86" fill="#ff735d" fill-rule="nonzero" opacity="1" stroke="none" vectornator:layerName="path"/>
<path d="M1327.25 2653.26C1327.25 2653.26 1346.92 2668.63 1346.96 2687.81C1347 2707.73 1341.53 2709.12 1341.53 2709.12C1335.47 2704.93 1330.06 2702.47 1325.07 2701.14L1311.93 2674.95L1327.25 2653.26Z" fill="#ff735d" fill-rule="nonzero" opacity="1" stroke="none" vectornator:layerName="path"/>
<path d="M1243.55 2736.36C1235.45 2733.22 1239.91 2724.04 1239.91 2724.04C1233.7 2724.46 1233.19 2718.18 1233.19 2718.18C1239.15 2716.87 1245.5 2708.36 1245.5 2708.36C1245.5 2708.36 1256.84 2708.21 1257.74 2707.91L1280.23 2744.51L1270.51 2756.32C1270.51 2756.32 1268.71 2758.23 1264.3 2759.12C1259.9 2760 1256.67 2753.99 1256.67 2753.99C1249.02 2753.57 1249.48 2745.71 1249.48 2745.71C1249.48 2745.71 1242.82 2745.48 1243.55 2736.36" fill="#ffbf9d" fill-rule="nonzero" opacity="1" stroke="none" vectornator:layerName="path"/>
<path d="M1239.84 2724.03C1239.8 2723.98 1240.74 2723.3 1242.34 2722.36C1243.94 2721.41 1246.22 2720.24 1248.61 2718.76C1251.02 2717.3 1252.88 2715.52 1254.55 2714.6C1255.37 2714.13 1256.11 2713.9 1256.63 2713.8C1257.14 2713.7 1257.43 2713.69 1257.44 2713.72C1257.47 2713.82 1256.29 2713.95 1254.73 2714.91C1253.19 2715.87 1251.34 2717.71 1248.89 2719.2C1246.47 2720.7 1244.16 2721.82 1242.52 2722.69C1240.88 2723.54 1239.88 2724.1 1239.84 2724.03" fill="#fd9a6c" fill-rule="nonzero" opacity="1" stroke="none" vectornator:layerName="path"/>
<path d="M1248.95 2745.8C1248.94 2745.72 1249.97 2745.64 1251.59 2745.35C1253.22 2745.07 1255.44 2744.53 1257.76 2743.58C1260.09 2742.63 1262.05 2741.47 1263.41 2740.53C1264.77 2739.6 1265.56 2738.94 1265.61 2739C1265.65 2739.04 1264.95 2739.81 1263.63 2740.83C1262.31 2741.86 1260.33 2743.1 1257.96 2744.07C1255.59 2745.03 1253.31 2745.53 1251.65 2745.72C1249.99 2745.91 1248.95 2745.86 1248.95 2745.8" fill="#fd9a6c" fill-rule="nonzero" opacity="1" stroke="none" vectornator:layerName="path"/>
<path d="M1266.65 2748.67C1266.7 2748.7 1266.4 2749.35 1265.68 2750.23C1264.96 2751.11 1263.77 2752.19 1262.22 2753C1260.67 2753.81 1259.1 2754.17 1257.97 2754.26C1256.83 2754.35 1256.13 2754.22 1256.14 2754.16C1256.12 2754 1258.98 2754.14 1261.98 2752.54C1265 2750.99 1266.52 2748.56 1266.65 2748.67" fill="#fd9a6c" fill-rule="nonzero" opacity="1" stroke="none" vectornator:layerName="path"/>
<path d="M1243.6 2736.45C1243.54 2736.3 1246.59 2735.27 1250.01 2733.32C1253.43 2731.39 1255.87 2729.3 1255.98 2729.42C1256.02 2729.47 1255.47 2730.06 1254.46 2730.89C1253.46 2731.73 1252 2732.79 1250.26 2733.77C1248.53 2734.76 1246.87 2735.47 1245.64 2735.9C1244.41 2736.34 1243.62 2736.51 1243.6 2736.45" fill="#fd9a6c" fill-rule="nonzero" opacity="1" stroke="none" vectornator:layerName="path"/>
<path d="M1209.68 2624.61C1209.68 2624.61 1209.78 2624.74 1209.95 2625.02C1210.13 2625.31 1210.37 2625.72 1210.69 2626.24C1211.34 2627.35 1212.29 2628.94 1213.5 2630.98C1215.93 2635.12 1219.42 2641.07 1223.74 2648.43C1232.35 2663.21 1244.23 2683.59 1257.36 2706.11C1260.63 2711.74 1263.83 2717.25 1266.92 2722.56C1269.99 2727.88 1272.99 2733 1276.01 2737.77C1279.03 2742.53 1282.11 2746.93 1285.32 2750.78C1288.53 2754.62 1291.85 2757.94 1295.36 2760.37C1302.3 2765.34 1309.01 2767.58 1313.68 2768.38C1314.85 2768.61 1315.91 2768.68 1316.82 2768.77C1317.74 2768.81 1318.51 2768.83 1319.14 2768.83C1319.75 2768.8 1320.22 2768.78 1320.57 2768.76C1320.89 2768.74 1321.06 2768.75 1321.06 2768.75C1321.06 2768.75 1320.89 2768.78 1320.57 2768.81C1320.23 2768.84 1319.75 2768.88 1319.14 2768.94C1318.51 2768.95 1317.73 2768.95 1316.81 2768.93C1315.89 2768.85 1314.83 2768.79 1313.65 2768.58C1308.94 2767.84 1302.16 2765.63 1295.14 2760.67C1291.59 2758.25 1288.23 2754.9 1284.99 2751.06C1281.74 2747.2 1278.64 2742.8 1275.6 2738.02C1272.57 2733.25 1269.56 2728.14 1266.48 2722.82C1263.39 2717.51 1260.19 2712.01 1256.91 2706.37C1243.84 2683.82 1232 2663.41 1223.42 2648.61C1219.17 2641.22 1215.72 2635.24 1213.32 2631.08C1212.15 2629.02 1211.23 2627.41 1210.6 2626.3C1210.3 2625.76 1210.07 2625.35 1209.9 2625.05C1209.75 2624.76 1209.68 2624.61 1209.68 2624.61" fill="#182e35" fill-rule="nonzero" opacity="1" stroke="none" vectornator:layerName="path"/>
<path d="M1326.47 2701.86C1326.48 2701.8 1327.51 2701.86 1329.16 2702.19C1330.81 2702.51 1333.07 2703.14 1335.39 2704.29C1337.7 2705.44 1339.55 2706.91 1340.74 2708.09C1341.94 2709.28 1342.54 2710.14 1342.49 2710.17C1342.37 2710.32 1339.73 2707 1335.15 2704.75C1330.61 2702.51 1326.42 2702.06 1326.47 2701.86" fill="#182e35" fill-rule="nonzero" opacity="1" stroke="none" vectornator:layerName="path"/>
<path d="M1269.63 2605.71C1269.64 2605.7 1269.7 2605.78 1269.8 2605.95C1269.92 2606.14 1270.07 2606.38 1270.25 2606.68C1270.66 2607.36 1271.22 2608.3 1271.94 2609.51C1273.41 2612 1275.51 2615.56 1278.09 2619.94C1283.29 2628.75 1290.53 2640.89 1298.67 2654.21C1306.82 2667.53 1314.33 2679.5 1319.81 2688.15C1322.53 2692.44 1324.74 2695.93 1326.29 2698.38C1327.04 2699.57 1327.62 2700.5 1328.04 2701.17C1328.23 2701.47 1328.37 2701.71 1328.49 2701.9C1328.59 2702.07 1328.63 2702.16 1328.62 2702.16C1328.62 2702.17 1328.56 2702.09 1328.44 2701.93C1328.32 2701.75 1328.16 2701.52 1327.96 2701.23C1327.52 2700.57 1326.9 2699.65 1326.12 2698.49C1324.54 2696.11 1322.27 2692.64 1319.5 2688.35C1313.94 2679.75 1306.38 2667.81 1298.23 2654.48C1290.08 2641.16 1282.9 2628.99 1277.78 2620.13C1275.22 2615.7 1273.16 2612.1 1271.76 2609.61C1271.08 2608.38 1270.55 2607.42 1270.16 2606.73C1269.99 2606.42 1269.86 2606.17 1269.76 2605.97C1269.67 2605.8 1269.63 2605.71 1269.63 2605.71" fill="#182e35" fill-rule="nonzero" opacity="1" stroke="none" vectornator:layerName="path"/>
<path d="M1207.46 2597.08C1207.44 2597.07 1207.48 2596.89 1207.56 2596.54C1207.66 2596.2 1207.75 2595.68 1207.97 2595.05C1208.37 2593.76 1209.08 2591.93 1210.25 2589.81C1211.42 2587.69 1213.11 2585.33 1215.38 2583.07C1217.65 2580.81 1220.54 2578.7 1223.9 2577.15C1227.28 2575.62 1230.76 2574.82 1233.96 2574.59C1237.15 2574.35 1240.05 2574.63 1242.41 2575.13C1244.78 2575.63 1246.63 2576.29 1247.86 2576.84C1248.49 2577.09 1248.94 2577.36 1249.26 2577.51C1249.58 2577.68 1249.74 2577.77 1249.73 2577.78C1249.71 2577.83 1249.03 2577.51 1247.78 2577.03C1246.54 2576.54 1244.69 2575.94 1242.34 2575.49C1240 2575.04 1237.14 2574.81 1233.99 2575.07C1230.85 2575.32 1227.43 2576.13 1224.12 2577.62C1220.82 2579.15 1217.97 2581.2 1215.72 2583.41C1213.46 2585.62 1211.77 2587.93 1210.57 2589.99C1209.37 2592.06 1208.61 2593.85 1208.17 2595.11C1207.71 2596.37 1207.51 2597.09 1207.46 2597.08" fill="#182e35" fill-rule="nonzero" opacity="1" stroke="none" vectornator:layerName="path"/>
<path d="M1316.8 2684.37C1316.76 2684.35 1317.16 2683.76 1317.85 2682.69C1318.54 2681.63 1319.54 2680.08 1320.67 2678.11C1321.81 2676.14 1323.09 2673.75 1324.3 2671C1325.55 2668.27 1326.58 2665.14 1327.15 2661.72C1328.31 2654.89 1327.38 2648.52 1325.88 2644.26C1325.17 2642.11 1324.27 2640.49 1323.68 2639.38C1323.37 2638.88 1323.12 2638.47 1322.91 2638.13C1322.74 2637.84 1322.66 2637.68 1322.67 2637.67C1322.69 2637.66 1322.8 2637.8 1323 2638.07C1323.23 2638.39 1323.51 2638.79 1323.85 2639.27C1324.51 2640.37 1325.46 2641.97 1326.22 2644.14C1327.83 2648.41 1328.84 2654.88 1327.66 2661.81C1327.09 2665.26 1326.02 2668.46 1324.74 2671.2C1323.49 2673.96 1322.17 2676.34 1320.99 2678.29C1319.81 2680.25 1318.76 2681.77 1318.02 2682.81C1317.64 2683.33 1317.35 2683.72 1317.14 2683.98C1316.93 2684.25 1316.81 2684.38 1316.8 2684.37" fill="#182e35" fill-rule="nonzero" opacity="1" stroke="none" vectornator:layerName="path"/>
<g opacity="0.300003" vectornator:layerName="path">
<clipPath clip-rule="nonzero" id="ClipPath_2">
<path d="M1316.98 2688.37L1329.84 2688.37L1329.84 2653.93L1316.98 2653.93L1316.98 2688.37Z"/>
</clipPath>
<g clip-path="url(#ClipPath_2)">
<path d="M1328.06 2653.93L1328.53 2654.69C1331.94 2666.36 1328.52 2679.76 1319.94 2688.37L1316.98 2683.91C1323.74 2675.35 1327.31 2664.82 1328.06 2653.93" fill="#000000" fill-rule="nonzero" opacity="1" stroke="none" vectornator:layerName="path"/>
</g>
</g>
<path d="M1268.87 2605.51C1268.88 2605.53 1268.68 2605.61 1268.3 2605.75C1267.86 2605.9 1267.3 2606.09 1266.62 2606.33C1265.15 2606.81 1263.05 2607.55 1260.47 2608.52C1257.89 2609.48 1254.86 2610.73 1251.54 2612.22C1248.23 2613.73 1244.64 2615.49 1240.95 2617.51C1237.28 2619.55 1233.87 2621.64 1230.82 2623.63C1227.79 2625.65 1225.11 2627.55 1222.92 2629.21C1220.73 2630.87 1218.98 2632.25 1217.79 2633.23C1217.22 2633.69 1216.76 2634.06 1216.4 2634.35C1216.08 2634.59 1215.91 2634.72 1215.9 2634.71C1215.89 2634.69 1216.04 2634.54 1216.33 2634.27C1216.68 2633.96 1217.12 2633.56 1217.66 2633.08C1218.81 2632.05 1220.53 2630.62 1222.7 2628.92C1224.87 2627.21 1227.53 2625.28 1230.56 2623.23C1233.6 2621.21 1237.01 2619.1 1240.7 2617.05C1244.4 2615.03 1248.01 2613.27 1251.34 2611.78C1254.69 2610.31 1257.74 2609.09 1260.35 2608.17C1262.94 2607.25 1265.07 2606.55 1266.56 2606.13C1267.25 2605.94 1267.82 2605.77 1268.27 2605.65C1268.66 2605.54 1268.87 2605.5 1268.87 2605.51" fill="#ffffff" fill-rule="nonzero" opacity="1" stroke="none" vectornator:layerName="path"/>
<path d="M1292.05 2651.4C1292.06 2651.42 1291.88 2651.51 1291.53 2651.67C1291.13 2651.85 1290.62 2652.07 1290 2652.34C1288.67 2652.91 1286.75 2653.75 1284.38 2654.8C1279.66 2656.91 1273.2 2659.98 1266.25 2663.74C1259.31 2667.5 1253.21 2671.24 1248.86 2674.05C1246.68 2675.45 1244.93 2676.61 1243.73 2677.41C1243.16 2677.78 1242.7 2678.09 1242.34 2678.33C1242.01 2678.53 1241.84 2678.63 1241.83 2678.62C1241.82 2678.6 1241.97 2678.47 1242.28 2678.24C1242.63 2677.98 1243.07 2677.65 1243.62 2677.25C1244.78 2676.39 1246.5 2675.19 1248.66 2673.74C1252.96 2670.85 1259.04 2667.05 1266 2663.28C1272.96 2659.51 1279.47 2656.49 1284.24 2654.46C1286.62 2653.45 1288.57 2652.66 1289.93 2652.15C1290.56 2651.92 1291.08 2651.73 1291.49 2651.57C1291.85 2651.45 1292.04 2651.39 1292.05 2651.4" fill="#ffffff" fill-rule="nonzero" opacity="1" stroke="none" vectornator:layerName="path"/>
<path d="M1325.9 2699.98C1325.91 2700 1325.71 2700.08 1325.34 2700.21C1324.91 2700.35 1324.36 2700.54 1323.69 2700.77C1322.19 2701.26 1320.13 2701.94 1317.61 2702.76C1312.48 2704.46 1305.4 2706.83 1297.86 2710.13C1294.09 2711.79 1290.59 2713.57 1287.49 2715.33C1285.97 2716.25 1284.49 2717.08 1283.19 2717.98C1282.53 2718.42 1281.88 2718.82 1281.28 2719.25C1280.68 2719.68 1280.11 2720.09 1279.56 2720.49C1278.45 2721.25 1277.53 2722.05 1276.69 2722.71C1275.84 2723.37 1275.14 2723.97 1274.58 2724.48C1274.05 2724.94 1273.61 2725.32 1273.27 2725.62C1272.96 2725.88 1272.8 2726 1272.79 2725.99C1272.77 2725.98 1272.91 2725.82 1273.2 2725.54C1273.52 2725.23 1273.94 2724.82 1274.45 2724.33C1274.99 2723.8 1275.66 2723.17 1276.5 2722.49C1277.33 2721.8 1278.24 2720.98 1279.34 2720.19C1279.89 2719.79 1280.45 2719.36 1281.04 2718.92C1281.64 2718.48 1282.29 2718.07 1282.95 2717.62C1284.25 2716.7 1285.73 2715.85 1287.25 2714.91C1290.36 2713.12 1293.87 2711.33 1297.65 2709.65C1305.22 2706.34 1312.34 2704.02 1317.5 2702.41C1320.08 2701.61 1322.18 2700.99 1323.63 2700.57C1324.31 2700.38 1324.87 2700.23 1325.31 2700.11C1325.69 2700.01 1325.9 2699.96 1325.9 2699.98" fill="#ffffff" fill-rule="nonzero" opacity="1" stroke="none" vectornator:layerName="path"/>
<path d="M1306.01 2620.22C1306.03 2620.3 1304.75 2620.71 1302.72 2621.46C1300.68 2622.21 1297.91 2623.34 1294.96 2624.83C1292.02 2626.33 1289.47 2627.9 1287.66 2629.1C1285.85 2630.3 1284.77 2631.09 1284.72 2631.03C1284.7 2631 1284.94 2630.77 1285.41 2630.38C1285.87 2629.98 1286.57 2629.44 1287.45 2628.8C1289.21 2627.51 1291.76 2625.88 1294.73 2624.37C1297.7 2622.86 1300.52 2621.77 1302.6 2621.11C1303.64 2620.78 1304.48 2620.54 1305.08 2620.4C1305.67 2620.25 1306 2620.19 1306.01 2620.22" fill="#ffffff" fill-rule="nonzero" opacity="1" stroke="none" vectornator:layerName="path"/>
<path d="M1327.54 2659.74C1327.57 2659.76 1327.4 2660.03 1327.06 2660.5C1326.73 2660.97 1326.22 2661.63 1325.55 2662.41C1324.22 2663.98 1322.22 2666.02 1319.75 2667.96C1317.27 2669.91 1314.82 2671.37 1312.98 2672.29C1312.06 2672.75 1311.3 2673.1 1310.77 2673.3C1310.23 2673.52 1309.93 2673.62 1309.92 2673.59C1309.88 2673.51 1311.03 2672.97 1312.81 2671.97C1314.59 2670.97 1316.98 2669.47 1319.43 2667.55C1321.87 2665.63 1323.89 2663.66 1325.28 2662.16C1326.67 2660.67 1327.47 2659.69 1327.54 2659.74" fill="#ffffff" fill-rule="nonzero" opacity="1" stroke="none" vectornator:layerName="path"/>
<path d="M1346.96 2688.81C1346.87 2688.86 1346.16 2687.47 1344.66 2685.5C1343.91 2684.51 1342.92 2683.4 1341.73 2682.27C1340.53 2681.17 1339.11 2680.05 1337.51 2679.04C1335.9 2678.06 1334.26 2677.29 1332.73 2676.7C1331.2 2676.12 1329.77 2675.72 1328.56 2675.47C1326.12 2674.95 1324.57 2674.89 1324.58 2674.79C1324.58 2674.75 1324.97 2674.75 1325.67 2674.77C1326.37 2674.79 1327.39 2674.89 1328.63 2675.11C1329.87 2675.32 1331.33 2675.69 1332.9 2676.25C1334.46 2676.83 1336.14 2677.59 1337.78 2678.6C1339.42 2679.62 1340.85 2680.78 1342.06 2681.93C1343.26 2683.09 1344.23 2684.24 1344.95 2685.28C1345.34 2685.77 1345.62 2686.27 1345.89 2686.69C1346.16 2687.11 1346.36 2687.5 1346.51 2687.81C1346.83 2688.44 1346.99 2688.79 1346.96 2688.81" fill="#ffffff" fill-rule="nonzero" opacity="1" stroke="none" vectornator:layerName="path"/>
<path d="M1340.9 2734.69C1340.92 2734.7 1340.85 2734.86 1340.71 2735.16C1340.54 2735.52 1340.32 2735.95 1340.07 2736.48C1339.92 2736.77 1339.76 2737.09 1339.59 2737.43C1339.41 2737.77 1339.18 2738.12 1338.94 2738.51C1338.46 2739.28 1337.97 2740.18 1337.27 2741.09C1336.93 2741.55 1336.59 2742.04 1336.22 2742.54C1335.85 2743.04 1335.41 2743.52 1334.99 2744.03C1334.15 2745.09 1333.13 2746.09 1332.07 2747.17C1329.89 2749.25 1327.3 2751.35 1324.35 2753.2C1321.38 2755.02 1318.34 2756.4 1315.51 2757.43C1314.07 2757.9 1312.72 2758.37 1311.4 2758.65C1310.75 2758.8 1310.13 2758.98 1309.51 2759.09C1308.9 2759.19 1308.31 2759.29 1307.75 2759.38C1306.63 2759.6 1305.6 2759.64 1304.7 2759.73C1304.25 2759.77 1303.83 2759.81 1303.44 2759.83C1303.06 2759.83 1302.71 2759.83 1302.38 2759.83C1301.79 2759.83 1301.31 2759.82 1300.92 2759.82C1300.58 2759.81 1300.41 2759.8 1300.41 2759.78C1300.41 2759.76 1300.58 2759.74 1300.92 2759.72C1301.31 2759.69 1301.79 2759.67 1302.37 2759.63C1302.7 2759.62 1303.05 2759.6 1303.42 2759.58C1303.81 2759.55 1304.22 2759.49 1304.67 2759.44C1305.56 2759.33 1306.58 2759.26 1307.69 2759.02C1308.25 2758.91 1308.83 2758.8 1309.43 2758.69C1310.04 2758.57 1310.65 2758.38 1311.3 2758.23C1312.6 2757.93 1313.93 2757.45 1315.35 2756.98C1318.14 2755.94 1321.13 2754.56 1324.08 2752.76C1327 2750.93 1329.56 2748.86 1331.74 2746.83C1332.79 2745.76 1333.82 2744.78 1334.66 2743.75C1335.09 2743.25 1335.53 2742.78 1335.91 2742.29C1336.27 2741.8 1336.63 2741.33 1336.97 2740.87C1337.68 2739.99 1338.2 2739.1 1338.7 2738.36C1338.94 2737.98 1339.18 2737.63 1339.38 2737.3C1339.56 2736.97 1339.73 2736.67 1339.89 2736.38C1340.18 2735.88 1340.42 2735.46 1340.61 2735.12C1340.79 2734.83 1340.88 2734.68 1340.9 2734.69" fill="#ffffff" fill-rule="nonzero" opacity="1" stroke="none" vectornator:layerName="path"/>
<path d="M1278.87 2587.36C1278.94 2587.48 1276.25 2589.13 1272.86 2591.04C1269.47 2592.95 1266.66 2594.4 1266.59 2594.27C1266.52 2594.15 1269.21 2592.5 1272.6 2590.59C1275.99 2588.68 1278.8 2587.23 1278.87 2587.36" fill="#ffffff" fill-rule="nonzero" opacity="1" stroke="none" vectornator:layerName="path"/>
<path d="M1226.77 2659.83C1226.78 2659.87 1226.39 2659.97 1225.69 2660.11C1224.99 2660.26 1223.96 2660.43 1222.69 2660.61C1220.15 2660.96 1216.6 2661.28 1212.68 2661.28C1208.75 2661.27 1205.21 2660.96 1202.67 2660.6C1201.4 2660.42 1200.37 2660.24 1199.67 2660.1C1198.96 2659.95 1198.58 2659.86 1198.59 2659.82C1198.59 2659.78 1198.99 2659.81 1199.7 2659.9C1200.52 2659.99 1201.53 2660.1 1202.71 2660.23C1205.25 2660.5 1208.78 2660.75 1212.68 2660.76C1216.58 2660.76 1220.1 2660.5 1222.64 2660.24C1223.83 2660.11 1224.83 2660 1225.66 2659.91C1226.37 2659.83 1226.77 2659.8 1226.77 2659.83" fill="#ffffff" fill-rule="nonzero" opacity="1" stroke="none" vectornator:layerName="path"/>
<path d="M1205.92 2613.58C1205.92 2613.73 1202.64 2613.63 1198.61 2613.37C1194.58 2613.11 1191.32 2612.78 1191.33 2612.64C1191.34 2612.5 1194.61 2612.59 1198.64 2612.85C1202.67 2613.11 1205.93 2613.44 1205.92 2613.58" fill="#ffffff" fill-rule="nonzero" opacity="1" stroke="none" vectornator:layerName="path"/>
<path d="M1207.67 2584.7C1207.62 2584.83 1205.18 2583.94 1202.23 2582.7C1199.27 2581.46 1196.93 2580.35 1196.98 2580.22C1197.04 2580.09 1199.47 2580.98 1202.43 2582.22C1205.38 2583.46 1207.73 2584.57 1207.67 2584.7" fill="#ffffff" fill-rule="nonzero" opacity="1" stroke="none" vectornator:layerName="path"/>
<path d="M1252.61 2702.41C1252.62 2702.45 1252.04 2702.62 1250.97 2702.91C1249.9 2703.19 1248.34 2703.57 1246.41 2703.99C1242.54 2704.84 1237.15 2705.82 1231.15 2706.51C1225.14 2707.2 1219.67 2707.46 1215.71 2707.51C1213.73 2707.53 1212.13 2707.52 1211.02 2707.48C1209.92 2707.44 1209.3 2707.4 1209.3 2707.37C1209.3 2707.33 1209.92 2707.3 1211.02 2707.27C1212.21 2707.24 1213.79 2707.19 1215.7 2707.14C1219.65 2707 1225.1 2706.68 1231.09 2706C1237.07 2705.31 1242.46 2704.39 1246.33 2703.63C1248.2 2703.26 1249.75 2702.94 1250.92 2702.71C1252 2702.48 1252.61 2702.38 1252.61 2702.41" fill="#ffffff" fill-rule="nonzero" opacity="1" stroke="none" vectornator:layerName="path"/>
<path d="M1316.14 2770.33C1316.14 2770.34 1316.04 2770.36 1315.85 2770.38C1315.63 2770.4 1315.35 2770.42 1315 2770.45C1314.22 2770.51 1313.13 2770.59 1311.74 2770.69C1310.33 2770.8 1308.6 2770.91 1306.58 2770.98C1304.56 2771.06 1302.27 2771.19 1299.73 2771.21C1297.19 2771.26 1294.41 2771.31 1291.43 2771.26C1288.44 2771.27 1285.25 2771.15 1281.89 2771.04C1275.19 2770.75 1267.82 2770.22 1260.12 2769.35C1252.42 2768.45 1245.12 2767.29 1238.52 2766.06C1235.23 2765.4 1232.09 2764.79 1229.18 2764.11C1226.27 2763.48 1223.57 2762.8 1221.11 2762.18C1218.64 2761.58 1216.43 2760.93 1214.49 2760.4C1212.54 2759.87 1210.88 2759.37 1209.52 2758.95C1208.2 2758.53 1207.15 2758.2 1206.4 2757.97C1206.07 2757.86 1205.81 2757.77 1205.6 2757.7C1205.42 2757.64 1205.32 2757.6 1205.33 2757.6C1205.33 2757.59 1205.43 2757.61 1205.61 2757.65C1205.83 2757.71 1206.1 2757.78 1206.43 2757.87C1207.19 2758.08 1208.24 2758.38 1209.58 2758.75C1210.94 2759.15 1212.61 2759.62 1214.57 2760.12C1216.52 2760.62 1218.72 2761.25 1221.2 2761.82C1223.66 2762.42 1226.36 2763.07 1229.28 2763.69C1232.19 2764.35 1235.32 2764.94 1238.61 2765.58C1245.2 2766.79 1252.49 2767.94 1260.18 2768.84C1267.86 2769.7 1275.22 2770.24 1281.91 2770.56C1285.26 2770.68 1288.45 2770.82 1291.43 2770.83C1294.41 2770.9 1297.19 2770.87 1299.72 2770.84C1302.26 2770.85 1304.55 2770.74 1306.57 2770.69C1308.58 2770.65 1310.32 2770.57 1311.73 2770.49C1313.12 2770.43 1314.21 2770.38 1315 2770.35C1315.35 2770.34 1315.63 2770.33 1315.85 2770.32C1316.04 2770.32 1316.14 2770.32 1316.14 2770.33" fill="#ffffff" fill-rule="nonzero" opacity="1" stroke="none" vectornator:layerName="path"/>
<path d="M1183.69 2456.22L1220.86 2460.51C1217.91 2476.82 1214.95 2493.4 1216.6 2509.89C1218.25 2526.39 1225.14 2543.1 1238.47 2552.96C1243.38 2556.58 1249.03 2559.21 1253.49 2563.36C1257.96 2567.52 1261.14 2573.93 1259.15 2579.7C1251.06 2577.64 1242.78 2575.57 1234.49 2576.39C1230.18 2576.82 1225.82 2578.02 1221.58 2577.12C1219.2 2576.62 1217 2575.47 1214.92 2574.21C1197.49 2563.6 1186.89 2544.17 1182.49 2524.24C1178.1 2504.31 1176.03 2485.49 1183.69 2456.22" fill="#182e35" fill-rule="nonzero" opacity="1" stroke="none" vectornator:layerName="path"/>
<path d="M1226.19 2420.97C1226.19 2420.97 1226.09 2421.1 1225.89 2421.34C1225.67 2421.59 1225.37 2421.93 1224.98 2422.37C1224.19 2423.28 1222.95 2424.57 1221.55 2426.39C1218.65 2429.95 1214.7 2435.34 1210.97 2442.66C1207.21 2449.94 1203.71 2459.18 1201.87 2469.88C1199.95 2480.54 1199.93 2492.69 1202.67 2504.91C1205.4 2517.13 1210.47 2528.15 1216.55 2537.11C1219.6 2541.6 1222.86 2545.6 1226.15 2549.13C1227.87 2550.83 1229.45 2552.54 1231.16 2554C1231.99 2554.74 1232.79 2555.49 1233.62 2556.18C1234.45 2556.85 1235.27 2557.51 1236.07 2558.15C1239.27 2560.72 1242.38 2562.77 1245.01 2564.72C1247.65 2566.64 1249.84 2568.42 1251.51 2570.01C1253.19 2571.59 1254.37 2572.94 1255.12 2573.89C1255.5 2574.37 1255.75 2574.75 1255.94 2575C1256.12 2575.26 1256.2 2575.39 1256.2 2575.39C1256.2 2575.39 1256.09 2575.28 1255.89 2575.03C1255.7 2574.8 1255.43 2574.42 1255.04 2573.96C1254.26 2573.03 1253.07 2571.7 1251.38 2570.16C1249.69 2568.6 1247.49 2566.85 1244.83 2564.95C1242.2 2563.03 1239.07 2561 1235.84 2558.44C1235.04 2557.8 1234.21 2557.14 1233.37 2556.47C1232.54 2555.79 1231.73 2555.03 1230.89 2554.29C1229.17 2552.84 1227.57 2551.13 1225.84 2549.43C1222.52 2545.9 1219.23 2541.88 1216.16 2537.38C1210.02 2528.38 1204.91 2517.31 1202.16 2505.02C1199.41 2492.73 1199.45 2480.51 1201.4 2469.8C1203.27 2459.05 1206.82 2449.78 1210.64 2442.49C1214.43 2435.17 1218.44 2429.79 1221.39 2426.26C1222.82 2424.46 1224.08 2423.19 1224.91 2422.3C1225.31 2421.87 1225.62 2421.54 1225.85 2421.3C1226.07 2421.08 1226.19 2420.97 1226.19 2420.97" fill="#365a64" fill-rule="nonzero" opacity="1" stroke="none" vectornator:layerName="path"/>
</g>
</g>
</svg>
