<svg width="704.102" height="80.617" xmlns="http://www.w3.org/2000/svg"><path d="M385.938 46.095h12.5V79.2h-65.577V62.013h9.424V18.702h-9.424V1.515h65.577v30.908h-12.5l-4.688-13.721h-13.965v12.696h12.5V44.19h-12.5v17.823h13.965l4.688-15.918ZM125 62.013V79.2H84.424V62.013h7.812V18.702h-7.812V1.515h49.902a47.854 47.854 0 0 1 6.304.386q7.405.987 11.494 4.497a14.583 14.583 0 0 1 4.083 5.993q.928 2.428 1.32 5.463a37.227 37.227 0 0 1 .285 4.754 21.579 21.579 0 0 1-.479 4.694q-.688 3.09-2.366 5.373a12.585 12.585 0 0 1-1.403 1.603 18.188 18.188 0 0 1-5.045 3.387q-3.048 1.412-7.015 2.131 4.916.785 7.911 3.051a11.144 11.144 0 0 1 2.221 2.222 15.303 15.303 0 0 1 2.75 6.417 21.177 21.177 0 0 1 .35 3.935v6.299h10.889V79.2h-15.723a114.398 114.398 0 0 1-2.952-.036q-3.038-.078-5.153-.33a13.4 13.4 0 0 1-2.044-.396q-1.072-.301-1.925-.775a6.833 6.833 0 0 1-.89-.587 7.51 7.51 0 0 1-1.442-1.521q-.852-1.173-1.512-2.849a18.239 18.239 0 0 1-.83-2.906q-.927-4.457-.927-12.084 0-5.445-1.606-8.342a7.783 7.783 0 0 0-.348-.569 5.945 5.945 0 0 0-2.871-2.224q-1.75-.682-4.257-.682h-5.909v16.114H125Zm537.207 12.695-1.709 4.492h-15.771V55.421H660.4a13.106 13.106 0 0 0 1.366 2.736 9.089 9.089 0 0 0 3.297 3.05 13.549 13.549 0 0 0 3.631 1.289q1.591.334 3.422.386a24.138 24.138 0 0 0 .687.01 11.669 11.669 0 0 0 2.28-.212 8.392 8.392 0 0 0 2.554-.936 5.009 5.009 0 0 0 1.012-.748 3.106 3.106 0 0 0 .99-2.304 4.387 4.387 0 0 0-.289-1.626q-.42-1.063-1.454-1.768a5.157 5.157 0 0 0-.308-.194q-2.046-1.194-5.743-2.217a48.516 48.516 0 0 0-.019-.005 112.471 112.471 0 0 1-4.51-1.306 85.567 85.567 0 0 1-4.059-1.38 78.684 78.684 0 0 1-3.632-1.44 59.317 59.317 0 0 1-3.229-1.489q-6.054-3.028-9.765-8.594a20.361 20.361 0 0 1-2.664-6.023q-1.047-3.869-1.047-8.772a27.7 27.7 0 0 1 .818-6.86 22.75 22.75 0 0 1 2.258-5.64 21.009 21.009 0 0 1 8.716-8.374 25.452 25.452 0 0 1 7.685-2.545 34.215 34.215 0 0 1 5.718-.458 23.812 23.812 0 0 1 6.496.84 17.604 17.604 0 0 1 8.397 5.166l2.49-4.59h14.014v23.291h-14.991q-2.099-4.394-4.638-6.103a9.013 9.013 0 0 0-2.56-1.161q-1.906-.548-4.423-.548a15.332 15.332 0 0 0-1.958.116q-1.991.257-3.266 1.08a4.367 4.367 0 0 0-1.113 1q-.725.944-.742 2.234a4.704 4.704 0 0 0-.001.062 3.431 3.431 0 0 0 1.433 2.825 6.253 6.253 0 0 0 1.253.739 20.068 20.068 0 0 0 1.867.775q1.973.714 4.729 1.359a69.703 69.703 0 0 0 .923.21q7.794 1.781 13.638 4.416a50.403 50.403 0 0 1 1.108.516 24.349 24.349 0 0 1 9.693 8.422 20.378 20.378 0 0 1 2.784 6.452q.68 2.729.818 5.926a38.475 38.475 0 0 1 .036 1.661 30.166 30.166 0 0 1-1.168 8.51 26.613 26.613 0 0 1-1.86 4.673 23.247 23.247 0 0 1-8.716 9.326q-5.639 3.418-12.915 3.418-3.065 0-5.444-.343a23.339 23.339 0 0 1-1.392-.243 18.882 18.882 0 0 1-5.249-1.904 33.752 33.752 0 0 1-2.456-1.487q-1.306-.865-2.695-1.931ZM301.953 61.72h7.666V79.2h-42.383V61.72h7.471V47.413l-20.459-28.711h-5.518V1.515h41.602v17.187h-4.394l8.886 12.988 6.983-12.988h-7.08V1.515h31.103v17.187h-8.789l-15.088 26.074V61.72Zm225.733-.098h8.007V79.2h-43.505V61.622h8.007v-42.92h-6.884l-2.1 13.379H477.49V1.515h73.096v30.566h-13.672l-2.1-13.379h-7.128v42.92ZM453.613 9.376l2.002-7.861h15.186v31.884h-15.576v-1.611a22.116 22.116 0 0 0-.402-4.335q-.544-2.721-1.825-4.863a13.225 13.225 0 0 0-.63-.958 9.284 9.284 0 0 0-6.543-3.827 14.027 14.027 0 0 0-1.929-.128 9.632 9.632 0 0 0-5.568 1.794 13.08 13.08 0 0 0-1.365 1.087 18.38 18.38 0 0 0-3.391 4.358 24.001 24.001 0 0 0-1.541 3.283 26.856 26.856 0 0 0-1.806 9.693 31.836 31.836 0 0 0 .551 6.112q.706 3.608 2.318 6.424a17.109 17.109 0 0 0 2.013 2.82 16.029 16.029 0 0 0 10.077 5.313 23.003 23.003 0 0 0 3.302.229 31.684 31.684 0 0 0 8.108-1.012 28.397 28.397 0 0 0 3.05-.99q5.151-2.002 8.471-4.297l1.074.928V74.22q-6.201 3.564-13.085 4.98-6.885 1.416-14.698 1.416a44.291 44.291 0 0 1-13.386-1.976 39.971 39.971 0 0 1-6.34-2.614 34.356 34.356 0 0 1-14.329-13.667 24.385 24.385 0 0 1-.002-.004 37.453 37.453 0 0 1-4.249-11.243q-.995-4.693-1.088-10.093a65.151 65.151 0 0 1-.01-1.125 53.062 53.062 0 0 1 1.429-12.515 45.349 45.349 0 0 1 2.624-7.749 33.385 33.385 0 0 1 11.889-14.331A30.49 30.49 0 0 1 430.12.545a40.885 40.885 0 0 1 6.794-.544q5.664 0 10.181 2.661a18.585 18.585 0 0 1 3.668 2.788 14.611 14.611 0 0 1 2.85 3.926ZM41.992 61.72V79.2H0V61.72h7.617V18.702H.195V1.417h41.602a75.248 75.248 0 0 1 8.495.456q4.259.485 7.979 1.484a46.131 46.131 0 0 1 .494.135 27.614 27.614 0 0 1 5.865 2.353 20.725 20.725 0 0 1 5.756 4.605 16.378 16.378 0 0 1 3.349 6.409q.683 2.446.833 5.354a32.442 32.442 0 0 1 .041 1.665q0 14.941-8.105 21.484-5.85 4.722-15.921 6.037a65.041 65.041 0 0 1-8.396.506 59.755 59.755 0 0 1-3.435-.093q-1.562-.09-2.941-.267a33.229 33.229 0 0 1-.899-.128V61.72h7.08Zm152.587 17.767a47.531 47.531 0 0 0 10.597 1.129 49.57 49.57 0 0 0 8.342-.674 37.11 37.11 0 0 0 12.727-4.55 34.155 34.155 0 0 0 13.452-14.356 41.435 41.435 0 0 0 3.333-9.29 51.08 51.08 0 0 0 1.257-11.559 55.555 55.555 0 0 0-.649-8.658 41.886 41.886 0 0 0-3.965-12.534q-4.614-9.082-13.403-14.062A37.656 37.656 0 0 0 215.245.945a51.185 51.185 0 0 0-10.069-.944 51.783 51.783 0 0 0-9.422.818 37.644 37.644 0 0 0-11.696 4.138q-8.814 4.956-13.404 14.038a40.797 40.797 0 0 0-3.598 10.564 54.337 54.337 0 0 0-.992 10.628 54.196 54.196 0 0 0 .407 6.73 42.839 42.839 0 0 0 4.208 14.119 34.357 34.357 0 0 0 13.452 14.356 36.505 36.505 0 0 0 10.448 4.095Zm389.307 0a47.531 47.531 0 0 0 10.596 1.129 49.57 49.57 0 0 0 8.342-.674 37.11 37.11 0 0 0 12.728-4.55 34.155 34.155 0 0 0 13.452-14.356 41.435 41.435 0 0 0 3.332-9.29 51.08 51.08 0 0 0 1.258-11.559 55.555 55.555 0 0 0-.649-8.658 41.886 41.886 0 0 0-3.966-12.534q-4.614-9.082-13.403-14.062A37.656 37.656 0 0 0 604.552.945a51.185 51.185 0 0 0-10.07-.944 51.783 51.783 0 0 0-9.421.818 37.644 37.644 0 0 0-11.697 4.138q-8.813 4.956-13.403 14.038a40.797 40.797 0 0 0-3.598 10.564 54.337 54.337 0 0 0-.992 10.628 54.196 54.196 0 0 0 .407 6.73 42.839 42.839 0 0 0 4.207 14.119 34.357 34.357 0 0 0 13.453 14.356 36.505 36.505 0 0 0 10.448 4.095ZM212.915 57.622a18.997 18.997 0 0 0 .342-.736 28.747 28.747 0 0 0 1.711-5.402q1.096-5.005 1.096-11.688 0-6.769-1.148-11.698a26.186 26.186 0 0 0-1.562-4.757q-2.709-6.055-8.178-6.055a7.927 7.927 0 0 0-6.563 3.248 13.444 13.444 0 0 0-1.64 2.807 26.542 26.542 0 0 0-1.584 4.913q-1.102 4.879-1.102 11.542a67.138 67.138 0 0 0 .3 6.555q.316 3.216.967 5.916a28.013 28.013 0 0 0 1.516 4.619 15.281 15.281 0 0 0 1.604 2.873q1.156 1.596 2.6 2.47a7.391 7.391 0 0 0 3.902 1.053q4.96 0 7.739-5.66Zm389.307 0a18.997 18.997 0 0 0 .341-.736 28.747 28.747 0 0 0 1.711-5.402q1.097-5.005 1.097-11.688 0-6.769-1.148-11.698a26.186 26.186 0 0 0-1.562-4.757q-2.71-6.055-8.179-6.055a7.927 7.927 0 0 0-6.563 3.248 13.444 13.444 0 0 0-1.64 2.807 26.542 26.542 0 0 0-1.583 4.913q-1.102 4.879-1.102 11.542a67.138 67.138 0 0 0 .299 6.555q.317 3.216.967 5.916a28.013 28.013 0 0 0 1.517 4.619 15.281 15.281 0 0 0 1.604 2.873q1.156 1.596 2.599 2.47a7.391 7.391 0 0 0 3.902 1.053q4.961 0 7.74-5.66Zm-477.32-38.92h-7.666v16.113h6.69a23.849 23.849 0 0 0 2.777-.15q3.273-.385 5.133-1.754a5.731 5.731 0 0 0 1.941-2.624q.647-1.673.647-4.065a7.439 7.439 0 0 0-.423-2.561 6.395 6.395 0 0 0-2.238-2.957 9.584 9.584 0 0 0-3.591-1.645q-1.358-.323-2.94-.354a17.239 17.239 0 0 0-.33-.003Zm-85.791 0H35.01v17.285h2.002a18.311 18.311 0 0 0 4.183-.434q5.677-1.337 6.684-6.79a14.008 14.008 0 0 0 .217-2.541 8.528 8.528 0 0 0-.309-2.359 6.202 6.202 0 0 0-2.133-3.208q-2.441-1.953-6.543-1.953Z" vector-effect="non-scaling-stroke" stroke-linecap="round" fill-rule="evenodd" font-size="12" stroke="#b5b5b5" stroke-width=".945" fill="none" style="stroke:#a4a4a4;stroke-width:.25mm;fill:none"/></svg>