<svg width="617.579" height="80.617" xmlns="http://www.w3.org/2000/svg"><path d="M324.756 61.72h7.812V79.2h-31.103V61.72h7.91V18.605h-7.715V1.417h35.889l24.316 46.191V18.702h-7.812V1.515h31.103v17.187h-7.715V79.2h-29.589l-23.096-42.92v25.44Zm-40.235-15.625h12.5V79.2h-65.576V62.013h9.424V18.702h-9.424V1.515h65.576v30.908h-12.5l-4.687-13.721h-13.965v12.696h12.5V44.19h-12.5v17.823h13.965l4.687-15.918ZM97.363 62.013h9.278V79.2H72.363V62.013h7.715l13.379-43.311H83.252V1.515h48.389l17.334 60.498h7.666V79.2h-43.702V62.013h6.348l-2.099-8.301H99.561l-2.198 8.301Zm478.321 12.695-1.709 4.492h-15.772V55.421h15.674a13.106 13.106 0 0 0 1.365 2.736 9.089 9.089 0 0 0 3.298 3.05 13.549 13.549 0 0 0 3.631 1.289q1.591.334 3.422.386a24.138 24.138 0 0 0 .686.01 11.669 11.669 0 0 0 2.281-.212 8.392 8.392 0 0 0 2.553-.936 5.009 5.009 0 0 0 1.012-.748 3.106 3.106 0 0 0 .99-2.304 4.387 4.387 0 0 0-.288-1.626q-.421-1.063-1.455-1.768a5.157 5.157 0 0 0-.308-.194q-2.045-1.194-5.742-2.217a48.516 48.516 0 0 0-.019-.005 112.471 112.471 0 0 1-4.511-1.306 85.567 85.567 0 0 1-4.059-1.38 78.684 78.684 0 0 1-3.631-1.44 59.317 59.317 0 0 1-3.229-1.489q-6.055-3.028-9.766-8.594a20.361 20.361 0 0 1-2.663-6.023q-1.048-3.869-1.048-8.772a27.7 27.7 0 0 1 .818-6.86 22.75 22.75 0 0 1 2.259-5.64 21.009 21.009 0 0 1 8.715-8.374 25.452 25.452 0 0 1 7.686-2.545 34.215 34.215 0 0 1 5.718-.458 23.812 23.812 0 0 1 6.496.84 17.604 17.604 0 0 1 8.396 5.166l2.491-4.59h14.013v23.291h-14.99q-2.1-4.394-4.639-6.103a9.013 9.013 0 0 0-2.559-1.161q-1.906-.548-4.423-.548a15.332 15.332 0 0 0-1.958.116q-1.991.257-3.267 1.08a4.367 4.367 0 0 0-1.112 1q-.726.944-.743 2.234a4.704 4.704 0 0 0 0 .062 3.431 3.431 0 0 0 1.433 2.825 6.253 6.253 0 0 0 1.252.739 20.068 20.068 0 0 0 1.868.775q1.972.714 4.729 1.359a69.703 69.703 0 0 0 .923.21q7.794 1.781 13.638 4.416a50.403 50.403 0 0 1 1.108.516 24.349 24.349 0 0 1 9.692 8.422 20.378 20.378 0 0 1 2.785 6.452q.68 2.729.818 5.926a38.475 38.475 0 0 1 .035 1.661 30.166 30.166 0 0 1-1.168 8.51 26.613 26.613 0 0 1-1.859 4.673 23.247 23.247 0 0 1-8.716 9.326q-5.64 3.418-12.915 3.418-3.066 0-5.444-.343a23.339 23.339 0 0 1-1.392-.243 18.882 18.882 0 0 1-5.249-1.904 33.752 33.752 0 0 1-2.456-1.487q-1.307-.865-2.695-1.931ZM50.195 61.622h8.008V79.2H14.697V61.622h8.008v-42.92H15.82l-2.099 13.379H0V1.515h73.096v30.566H59.424l-2.1-13.379h-7.129v42.92Zm390.967 0h8.008V79.2h-43.506V61.622h8.008v-42.92h-6.885l-2.099 13.379h-13.721V1.515h73.096v30.566h-13.672l-2.1-13.379h-7.129v42.92ZM212.988 44.581h12.403V79.2h-62.403V61.72h7.813V18.702h-7.813V1.515h40.576v17.187h-7.763V61.72h12.5l4.687-17.139Zm284.375 34.906a47.531 47.531 0 0 0 10.596 1.129 49.57 49.57 0 0 0 8.342-.674 37.11 37.11 0 0 0 12.727-4.55 34.155 34.155 0 0 0 13.452-14.356 41.435 41.435 0 0 0 3.333-9.29 51.08 51.08 0 0 0 1.257-11.559 55.555 55.555 0 0 0-.649-8.658 41.886 41.886 0 0 0-3.965-12.534q-4.614-9.082-13.403-14.062A37.656 37.656 0 0 0 518.029.945a51.185 51.185 0 0 0-10.07-.944 51.783 51.783 0 0 0-9.421.818 37.644 37.644 0 0 0-11.697 4.138q-8.814 4.956-13.403 14.038a40.797 40.797 0 0 0-3.599 10.564 54.337 54.337 0 0 0-.991 10.628 54.196 54.196 0 0 0 .406 6.73 42.839 42.839 0 0 0 4.208 14.119 34.357 34.357 0 0 0 13.452 14.356 36.505 36.505 0 0 0 10.449 4.095Zm18.335-21.865a18.997 18.997 0 0 0 .342-.736 28.747 28.747 0 0 0 1.711-5.402q1.097-5.005 1.097-11.688 0-6.769-1.148-11.698a26.186 26.186 0 0 0-1.562-4.757q-2.71-6.055-8.179-6.055a7.927 7.927 0 0 0-6.563 3.248 13.444 13.444 0 0 0-1.64 2.807 26.542 26.542 0 0 0-1.584 4.913q-1.102 4.879-1.102 11.542a67.138 67.138 0 0 0 .3 6.555q.316 3.216.967 5.916a28.013 28.013 0 0 0 1.517 4.619 15.281 15.281 0 0 0 1.603 2.873q1.157 1.596 2.6 2.47a7.391 7.391 0 0 0 3.902 1.053q4.961 0 7.739-5.66ZM102.051 41.896h12.793l-5.664-23.78-7.129 23.78Z" vector-effect="non-scaling-stroke" stroke-linecap="round" fill-rule="evenodd" font-size="12" stroke="#b5b5b5" stroke-width=".945" fill="none" style="stroke:#a4a4a4;stroke-width:.25mm;fill:none"/></svg>