<svg width="1523.4" height="217.501" xmlns="http://www.w3.org/2000/svg"><path d="M3.6 111.301 27 1.801h58.5l-23.4 109.5a123.315 123.315 0 0 0-1.439 8.129 106.525 106.525 0 0 0-.361 2.821q-.6 5.25-.6 10.35a61.63 61.63 0 0 0 .527 8.257 45.187 45.187 0 0 0 1.873 8.243 25.635 25.635 0 0 0 3.335 6.715 21.861 21.861 0 0 0 4.465 4.685q5.115 3.978 13.19 4.188a34.979 34.979 0 0 0 .91.012 31.937 31.937 0 0 0 11.037-1.874 29.584 29.584 0 0 0 5.163-2.476q7.2-4.35 12.9-12a75.738 75.738 0 0 0 8.074-13.719 86.775 86.775 0 0 0 1.526-3.531q3.9-9.6 6-19.8l23.4-109.5h58.5l-23.4 109.5a175.585 175.585 0 0 1-13.219 38.988 163.955 163.955 0 0 1-1.181 2.412 128.265 128.265 0 0 1-23.551 33.149 122.176 122.176 0 0 1-.449.451q-14.4 14.4-33.45 22.35-19.05 7.95-42.45 7.95-19.142 0-32.878-5.164a57.284 57.284 0 0 1-9.272-4.436q-16.05-9.6-23.4-26.25a86.317 86.317 0 0 1-6.702-25.417A107.266 107.266 0 0 1 0 143.401q0-7.8.9-15.75a166.212 166.212 0 0 1 2.238-14.127 185.136 185.136 0 0 1 .462-2.223Zm1322.4 81.3 36-51.3q-.263 0 3.284 2.771a308.71 308.71 0 0 0 1.066.829 54.466 54.466 0 0 0 3.287 2.338q4.035 2.668 9.913 5.762 8.55 4.5 19.35 8.1 10.8 3.6 22.5 3.6a46.03 46.03 0 0 0 3.574-.129q3.449-.27 5.666-1.104a10.131 10.131 0 0 0 .96-.417 12.117 12.117 0 0 0 1.963-1.21q1.079-.828 1.754-1.818a6.419 6.419 0 0 0 .633-1.172q1.05-2.55 1.05-5.25a9.175 9.175 0 0 0-3.074-6.88 15.358 15.358 0 0 0-2.626-1.97q-4.431-2.682-10.765-5.001a101.547 101.547 0 0 0-3.785-1.299 290.783 290.783 0 0 1-11.473-3.973 355.591 355.591 0 0 1-7.277-2.777 128.307 128.307 0 0 1-10.336-4.743q-6.534-3.378-11.564-7.107a45.869 45.869 0 0 1-8.605-8.21 39.235 39.235 0 0 1-4.445-6.94 40.773 40.773 0 0 1-3.812-12.418 53.033 53.033 0 0 1-.538-7.682 86.935 86.935 0 0 1 2.244-20.129 71.304 71.304 0 0 1 5.706-15.721q7.95-15.75 21.45-26.55t30-16.5q16.5-5.7 33.6-5.7 15 0 28.2 3.75a155.329 155.329 0 0 1 17.158 5.936 132.75 132.75 0 0 1 7.142 3.214 335.317 335.317 0 0 1 9.138 4.61q4.13 2.167 7.725 4.228a186.543 186.543 0 0 1 2.337 1.362l-35.4 48.3a.108.108 0 0 0 .056-.012q.249-.156-2.807-2.377a127.217 127.217 0 0 0-.849-.611q-4.2-3-11.4-6.75a101.126 101.126 0 0 0-9.184-4.189 127.833 127.833 0 0 0-7.016-2.561 56.686 56.686 0 0 0-17.719-3 54.002 54.002 0 0 0-.281 0 23.315 23.315 0 0 0-7.833 1.308 22.324 22.324 0 0 0-.117.042 14.56 14.56 0 0 0-3.141 1.554 11.374 11.374 0 0 0-2.709 2.496q-2.1 2.7-2.1 7.2t4.05 7.5q2.936 2.174 7.526 4.112a67.67 67.67 0 0 0 3.724 1.438 490.211 490.211 0 0 1 6.702 2.432q4.567 1.693 9.798 3.718 14.4 5.4 25.35 11.85a52.905 52.905 0 0 1 10.689 8.188 44.566 44.566 0 0 1 6.261 7.862q5.25 8.4 5.906 20.934a70.123 70.123 0 0 1 .094 3.666 102.691 102.691 0 0 1-1.36 17.181q-1.639 9.653-5.254 17.613a59.517 59.517 0 0 1-1.786 3.606 71.147 71.147 0 0 1-16.816 20.957 67.926 67.926 0 0 1-5.384 4.093q-13.8 9.45-30.3 13.65-16.5 4.2-32.7 4.2a150.102 150.102 0 0 1-36.182-4.555 173.122 173.122 0 0 1-8.518-2.345 161.147 161.147 0 0 1-19.859-7.392A117.74 117.74 0 0 1 1326 192.601Zm-628.5 22.2 114.3-213h53.7l23.7 213h-59.4l-2.1-41.7h-51l-19.5 41.7h-59.7Zm-498.9 0 45.3-213H363a37.652 37.652 0 0 1 9.243 1.08 28.097 28.097 0 0 1 10.707 5.22 39.095 39.095 0 0 1 11.873 15.891 45.823 45.823 0 0 1 .127.309 55.306 55.306 0 0 1 4.033 19.836 63.38 63.38 0 0 1 .017 1.464 60.712 60.712 0 0 1-3.169 19.111 71.424 71.424 0 0 1-1.631 4.439q-4.8 11.85-13.95 21.45a62.891 62.891 0 0 1-19.511 13.768 73.252 73.252 0 0 1-2.839 1.232q13.2 4.2 20.55 14.85a40.063 40.063 0 0 1 6.042 14.169q1.226 5.481 1.303 11.83a70.452 70.452 0 0 1 .005.851q0 18-7.05 30.75t-19.35 20.85q-12.3 8.1-28.05 12-15.75 3.9-32.85 3.9h-99.9Zm707.1 0 45.3-213h78.6a117.997 117.997 0 0 1 19.758 1.561q15.305 2.601 26.742 9.539 18.3 11.1 27.3 29.85t9 42.15q0 28.2-9.6 51.9t-27 41.25q-17.4 17.55-40.8 27.15-23.4 9.6-50.7 9.6h-78.6Zm280.438-.154a91.147 91.147 0 0 0 19.262 1.954q20.7 0 39.9-6.9t35.4-19.2q16.2-12.3 28.2-28.35t18.75-34.5q6.75-18.45 6.75-37.65 0-17.4-5.25-33.45-5.25-16.05-15.75-28.65-10.5-12.6-25.8-19.95t-35.1-7.35q-20.7 0-39.9 6.9t-35.55 19.05q-16.35 12.15-28.5 28.2-12.15 16.05-18.9 34.65-6.75 18.6-6.75 37.8 0 17.4 5.4 33.45 5.4 16.05 15.9 28.65 10.5 12.6 25.95 19.95a72.858 72.858 0 0 0 15.988 5.396ZM585.3 216.301q-19.8 0-35.1-7.35t-25.95-19.8q-10.65-12.45-16.05-28.5t-5.4-33.45q0-19.5 6.75-37.95 6.75-18.45 19.05-34.5t28.65-28.35q16.35-12.3 35.4-19.2 19.05-6.9 39.75-6.9 19.8 0 35.1 7.35t25.8 20.1q10.5 12.75 15.75 28.8t5.25 33.45q0 19.2-6.75 37.65t-18.75 34.5q-12 16.05-28.2 28.2-16.2 12.15-35.4 19.05t-39.9 6.9Zm-186.6-1.5 45.3-213h58.5l-45.3 213h-58.5Zm296.7 0h-54.6l-61.5-90h54.3l61.8 90Zm521.4-50.1q14.4 0 25.2-6.6 10.8-6.6 18.15-17.25 7.35-10.65 10.95-22.95a88.656 88.656 0 0 0 3.307-17.279 77.986 77.986 0 0 0 .293-6.721q0-11.1-3.45-20.55a33.93 33.93 0 0 0-6.082-10.569 31.502 31.502 0 0 0-4.868-4.581q-6.852-5.208-17.71-5.658a50.477 50.477 0 0 0-2.09-.042 52.345 52.345 0 0 0-14.05 1.82 44.01 44.01 0 0 0-10.85 4.63q-10.8 6.45-18 16.95-7.2 10.5-10.95 22.8a85.87 85.87 0 0 0-3.384 16.629 75.097 75.097 0 0 0-.366 7.371 63.005 63.005 0 0 0 1.782 15.181 56.264 56.264 0 0 0 1.668 5.519 35.014 35.014 0 0 0 5.895 10.535 32.165 32.165 0 0 0 5.055 4.915 26.621 26.621 0 0 0 10.334 4.847q4.197 1.003 9.166 1.003Zm-619.8-.3q14.4 0 25.2-6.6 10.8-6.6 18-17.1 7.2-10.5 10.8-22.8a88.656 88.656 0 0 0 3.307-17.279 77.986 77.986 0 0 0 .293-6.721q0-11.1-3.45-20.55a34.418 34.418 0 0 0-6.854-11.51 32.825 32.825 0 0 0-4.096-3.79 26.354 26.354 0 0 0-9.797-4.69q-3.818-.979-8.314-1.132a49.667 49.667 0 0 0-1.689-.028 52.345 52.345 0 0 0-14.05 1.82 44.01 44.01 0 0 0-10.85 4.63q-10.8 6.45-18 17.1-7.2 10.65-10.95 22.95a85.87 85.87 0 0 0-3.384 16.629 75.097 75.097 0 0 0-.366 7.371 60.296 60.296 0 0 0 2.834 18.589 56.979 56.979 0 0 0 .616 1.811 34.043 34.043 0 0 0 6.63 11.317 32.292 32.292 0 0 0 4.47 4.133q7.65 5.85 19.65 5.85Zm378-.6h20.1q12.6 0 23.1-5.7 10.5-5.7 18-15.45a73.162 73.162 0 0 0 10.009-17.825 85.283 85.283 0 0 0 1.691-4.675q4.2-12.75 4.2-26.85 0-12.3-3.75-21.3a32.607 32.607 0 0 0-5.96-9.518 29.774 29.774 0 0 0-5.29-4.582 28.968 28.968 0 0 0-11.265-4.498 39.392 39.392 0 0 0-7.035-.602h-20.1l-23.7 111Zm-181.5-29.7h33.3l-2.4-66-30.9 66Zm-525.9 31.5H309q3.6 0 7.05-1.5 3.45-1.5 6-4.35a20.999 20.999 0 0 0 2.774-3.975 27.215 27.215 0 0 0 1.426-3.075 23.9 23.9 0 0 0 1.512-6.427 29.29 29.29 0 0 0 .138-2.873 21.663 21.663 0 0 0-.264-3.459 16.206 16.206 0 0 0-.936-3.441 13.812 13.812 0 0 0-1.399-2.663 10.838 10.838 0 0 0-1.901-2.137 7.445 7.445 0 0 0-4.54-1.784 9.593 9.593 0 0 0-.56-.016h-43.2l-7.5 35.7Zm17.1-81.3h35.4q3 0 6-1.05a16.075 16.075 0 0 0 3.983-2.082 19.867 19.867 0 0 0 1.717-1.368q2.7-2.4 4.35-6.45a19.93 19.93 0 0 0 1.068-3.662q.364-1.842.5-3.994a42.648 42.648 0 0 0 .082-2.694q0-5.883-2.452-8.594a6.732 6.732 0 0 0-.098-.106 8.44 8.44 0 0 0-6.147-2.696 11.043 11.043 0 0 0-.303-.004h-36.9l-7.2 32.7Z" vector-effect="non-scaling-stroke" stroke-linecap="round" fill-rule="evenodd" font-size="12" stroke="#000" stroke-width=".945" style="stroke:#000;stroke-width:.25mm;fill:#000"/></svg>