<svg width="1288" height="3603" viewBox="0 0 1288 3603" fill="none" xmlns="http://www.w3.org/2000/svg">
<path d="M667.5 0C667.5 0 788 296.5 667.5 338C547 379.5 -55.4999 347.5 14.0001 528C83.5001 708.5 1288.5 700 1279 940.5C1269.5 1181 83.5001 1042.5 83.5001 1288C83.5001 1533.5 1214 1352.5 1214 1616.5C1214 1880.5 83.5001 1755 83.5001 2005.5C83.5001 2256 1172.5 1918 1214 2223.5C1255.5 2529 83.5001 2492 83.5001 2788.5C83.5001 3085 1214 2636 1214 2974C1214 3312 153.5 3081 144 3252C134.5 3423 806.5 3520.5 713.5 3604" stroke="#23ADD3" stroke-width="16"/>
</svg>
